<?xml version="1.0" encoding="utf-8"?>
<!-- Generator: Adobe Illustrator 27.0.1, SVG Export Plug-In . SVG Version: 6.00 Build 0)  -->
<svg version="1.1" id="Ebene_1" xmlns="http://www.w3.org/2000/svg" xmlns:xlink="http://www.w3.org/1999/xlink" x="0px" y="0px"
	 viewBox="0 0 220 399" enable-background="new 0 0 220 399" xml:space="preserve">
<g>
	<g>
		<path fill="none" stroke="#C6C6C6" stroke-width="1.38" stroke-miterlimit="10" d="M100.92,45c-0.07,0.02-0.15,0.03-0.23,0.03
			c-0.46,0-0.9-0.32-1.3-0.96c-1.13-1.78-2.71-6.49-2.71-10.12c0-2.57,1.23-2.78,1.6-2.78c0.3,0,0.6,0.1,0.89,0.3
			c0.47-13.71,5.57-20.38,15.57-20.38c0.19,0,0.38,0,0.57,0c0.17,0,0.36,0,0.55,0c12.88,0,15.02,11.29,15.29,20.38
			c0.29-0.2,0.59-0.3,0.89-0.3c0.38,0,1.6,0.2,1.6,2.78c0,3.73-1.38,8.4-2.38,10.11c-0.37,0.63-0.79,0.95-1.24,0.95
			c-0.09,0-0.18-0.01-0.26-0.04c-1.15,4.94-3.52,9.34-5.67,10.51c-0.68,13.44,3.1,20.57,20.59,25.81c8.37,0,11.03,3.87,11.53,15.33
			c0.71,16.43-0.47,32.68,0.5,49.06c0.32,5.32,3.55,12.24,4.2,18.69c1.16,11.49-0.57,22.62,0.53,33.77
			c0.43,0.96,1.41,1.67,1.47,2.26c0.07,0.69-1.08,1.65-1.14,2.38c1.11,5.47,2.89,12.19,3.99,17.66c-1.38,3.48-1.5,4.44-2.88,7.92
			c-2.87,2.32-5.93,4.91-8.81,7.24c-1.14-1.07,1.42-4.36,3.46-7.31c0.41-1.86,0.58-3.76,0.36-5.46c-0.21-1.6-1.07-4.17-1.45-6.43
			c-0.72,2.32-0.87,3.39-1.59,5.71c0.52,2.15,2.22,5.98,0.18,6.95c-1.05-2.51-2.66-5.52-3-8.49c0.43-3.09,0.51-4.62,0.89-7.96
			c1.15-2.42,2.25-7.8,1.86-11.3c-1.07-10.46-7.28-32.17-10.91-48.25c-0.11-10.99-0.64-22.64-0.75-33.63
			c0.05-0.98,0.15-1.96,0.28-2.95c0.77-3.99,0.45-3.48,0,0c-2.58,13.43-5.12,32.5-5.08,37.24c0,7.33,12.82,25.51,12.43,50.14
			c-0.06,3.62-2.74,15.63-5.35,28.16c-3.05,14.67-7.58,29.98-7.58,33.57c0,7.44,3.63,15.9,3.23,29.13
			c-0.3,9.95-15.15,53.14-15.49,68.23c0.14,1.1,1.79,2.04,1.78,2.98c-0.04,0.87-1.3,1.84-1.12,2.32c1.41,4.87,4.28,6.58,7.91,9.54
			c0.44,0.36,1.22,0.72,1.66,1.05c0.99,0.74,1.53,2.12,0.91,2.89c-0.44,0.54-1.28,0.8-1.73-0.41c0.18,0.49,0.84,1.39-1.09,1.85
			c-1.74,0.41-1.78-0.19-2.11-0.94c0.25,0.69,0.83,1.35-1.6,1.64c-2.08,0.24-2.05-0.08-2.23-0.69c0.14,0.66-0.23,1.01-2.33,1.11
			c-2.29,0.12-1.67-0.9-2.06-2.17c0.18,1.76-0.06,2.2-2.94,2.28c-2.1,0.06-4.35-0.68-3.65-4.98c-0.25-5.9-0.49-3.1-0.74-9.01
			c-0.1-1.83-0.29-3.11-0.52-5.21c0.05-1.23,0.38-4.19,0.54-5.86c0.52-5.34,0.57-17,0.99-22.43c0.33-12.67-0.79-25.84-0.75-32.44
			c0.09-6.04,2.12-20.15,2.12-24.12c0.06-4.83-1.8-9.42-1.82-13.76c-0.1-6.29-0.63-25.11-0.47-43.02c0.06-6.1,0.16-12.23,0.81-17.47
			c-0.51,0.18-1.48,0.27-2.18,0.28c-0.7,0-1.69-0.1-2.2-0.28c0.73,5.36,0.96,11.52,1.02,17.61c0.16,17.92-0.58,36.58-0.68,42.87
			c-0.03,4.34-1.88,8.92-1.82,13.76c0,3.97,2.04,18.07,2.12,24.12c0.04,6.61-1.08,19.77-0.75,32.44c0.42,5.43,0.47,17.14,0.99,22.48
			c0.16,1.67,0.49,4.63,0.54,5.86c-0.23,2.1-0.41,3.38-0.52,5.21c-0.25,5.9-0.49,3.05-0.74,8.96c0.7,4.3-1.56,5.03-3.65,4.98
			c-2.88-0.08-3.11-0.51-2.94-2.28c-0.39,1.27,0.65,2.23-1.64,2.11c-2.1-0.11-2.48-0.46-2.33-1.11c-0.18,0.61-0.15,0.94-2.23,0.69
			c-2.43-0.28-1.86-0.95-1.6-1.64c-0.33,0.75-0.38,1.36-2.11,0.94c-1.93-0.46-1.27-1.37-1.09-1.85c-0.45,1.22-1.29,0.96-1.73,0.41
			c-0.62-0.77-0.08-2.15,0.91-2.89c0.44-0.33,1.21-0.68,1.66-1.04c3.63-2.96,5.88-4.77,7.49-9.43c0.19-0.47-1.08-1.45-1.12-2.32
			c0-0.94,1.64-1.88,1.78-2.98c-0.33-15.09-15.19-58.33-15.49-68.28c-0.4-13.23,3.23-21.69,3.23-29.13c0-3.59-4.53-18.91-7.58-33.57
			c-2.61-12.54-4.79-24.54-4.85-28.16c-0.39-24.63,11.93-42.8,11.93-50.14c0.04-4.5-2.19-21.48-4.63-34.76c0-0.02,0-0.05,0-0.07
			c-0.28-1.48-0.56-2.9-0.84-4.31c0.28,1.39,0.56,2.86,0.84,4.38c-0.11,10.98-0.33,23.12-0.44,34.1
			c-3.64,16.08-8.6,32.99-10.91,48.25c-0.39,3.5,0.72,8.88,1.86,11.3c0.39,3.34,0.63,5.51,1.06,8.6c-0.34,2.97-1.95,5.97-3,8.48
			c-2.03-0.98-0.34-4.8,0.18-6.95c-0.72-2.32-1.04-4.03-1.76-6.35c-0.38,2.26-1.25,3.73-1.45,5.33c-0.22,1.7,0.1,5.34,0.52,7.2
			c2.04,2.95,4.6,6.24,3.46,7.31c-2.87-2.32-5.93-4.91-8.81-7.23c-1.38-3.48-1.67-5.08-3.05-8.56c1.11-5.47,2.89-12.19,3.99-17.66
			c-0.06-0.73-1.13-1.63-1.06-2.32c0.06-0.59,1.04-1.19,1.39-2.32c1.1-11.15-0.63-22.28,0.53-33.77c0.65-6.45,3.88-13.37,4.19-18.69
			c0.97-16.38-0.48-32.21,0.13-49.14c0.41-11.46,3.54-15.24,11.91-15.25c17.48-5.23,21.75-12.85,20.63-25.9
			c-3.19-1.43-4.61-7.03-5.35-10.39L100.92,45z"/>
	</g>
</g>
<g>
	<path fill="#1D1D1B" d="M105.36,98.91c-2,0-2.06-1.56-2.06-3.81c0-1.96-0.02-3.95,2.15-3.95c1.4,0,1.86,0.81,1.86,1.99v0.18h-0.64
		v-0.14c0-0.81-0.23-1.47-1.23-1.47c-1.44,0-1.48,1.41-1.48,3.39c0,2.15,0.06,3.27,1.41,3.27c1.06,0,1.35-0.67,1.35-1.59v-0.13h0.65
		v0.13C107.37,98.1,106.74,98.91,105.36,98.91z"/>
	<path fill="#1D1D1B" d="M111.33,98.76v-3.25c0-0.69,0.02-1.55-0.92-1.55s-1.21,0.82-1.21,1.71v3.09h-0.59v-7.47h0.59v2.9
		c0.31-0.46,0.72-0.75,1.32-0.75c1.06,0,1.39,0.71,1.39,1.65v3.67h-0.59L111.33,98.76z"/>
	<path fill="#1D1D1B" d="M113.86,96.25v0.3c0,1.16,0.18,1.84,1.11,1.84s1.06-0.55,1.09-1.22h0.59c-0.04,0.95-0.41,1.69-1.68,1.69
		c-1.48,0-1.71-1.09-1.71-2.42s0-3.01,1.78-3.01c1.33,0,1.65,0.92,1.65,2.13v0.68h-2.82L113.86,96.25z M116.06,95.13
		c-0.04-0.63-0.29-1.22-1.02-1.22c-0.78,0-1.06,0.52-1.14,1.18c-0.02,0.23-0.03,0.45-0.03,0.68h2.2c0-0.13,0-0.43,0-0.64H116.06z"/>
	<path fill="#1D1D1B" d="M119.13,98.87c-1.06,0-1.46-0.6-1.46-1.53v-0.12h0.59v0.12c0,0.67,0.25,1.05,0.87,1.05
		c0.58,0,0.9-0.32,0.9-0.9s-0.25-0.85-0.9-1.2l-0.41-0.23c-0.53-0.29-0.9-0.65-0.9-1.32c0-0.86,0.58-1.3,1.4-1.3
		c0.96,0,1.37,0.5,1.37,1.46v0.05H120v-0.12c0-0.57-0.24-0.9-0.83-0.9c-0.5,0-0.77,0.33-0.77,0.8s0.32,0.71,0.72,0.94l0.39,0.23
		c0.56,0.31,1.11,0.68,1.11,1.49c0,0.98-0.52,1.49-1.5,1.49L119.13,98.87z"/>
	<path fill="#1D1D1B" d="M123.18,98.8c-0.92,0-1.05-0.41-1.05-1.22v-3.54h-0.81v-0.49h0.81v-1l0.59-0.27v1.27h0.99v0.49h-0.99v3.5
		c0,0.65,0.19,0.73,0.61,0.73c0.11,0,0.27-0.02,0.38-0.04v0.53C123.53,98.78,123.36,98.8,123.18,98.8z"/>
</g>
<g>
	<path fill="#1D1D1B" d="M93.19,108.41v-3.51c0-0.8-0.12-1.27-0.81-1.27c-0.77,0-1.04,0.78-1.04,1.53v3.25h-0.59v-3.51
		c0-0.7-0.07-1.27-0.8-1.27c-0.77,0-1.05,0.9-1.05,1.65v3.13h-0.59v-4.21c0-0.33-0.02-0.66-0.04-0.99h0.58v0.77
		c0.22-0.45,0.63-0.88,1.24-0.88c0.83,0,1.06,0.52,1.15,0.88c0.29-0.51,0.64-0.88,1.26-0.88c1.08,0,1.28,0.89,1.28,1.77v3.55h-0.59
		L93.19,108.41z"/>
	<path fill="#1D1D1B" d="M95.73,105.9v0.3c0,1.16,0.18,1.84,1.11,1.84s1.06-0.55,1.1-1.22h0.59c-0.04,0.95-0.41,1.69-1.68,1.69
		c-1.48,0-1.71-1.1-1.71-2.42s0-3.01,1.78-3.01c1.33,0,1.65,0.92,1.65,2.13v0.68h-2.82L95.73,105.9z M97.93,104.78
		c-0.04-0.63-0.29-1.22-1.02-1.22c-0.77,0-1.06,0.52-1.14,1.18c-0.02,0.23-0.03,0.45-0.03,0.68h2.2c0-0.13,0-0.43,0-0.64H97.93z"/>
	<path fill="#1D1D1B" d="M102.34,108.41v-0.72c-0.39,0.56-0.75,0.8-1.45,0.8c-0.92,0-1.37-0.65-1.37-1.52
		c0-1.62,1.49-1.73,2.77-1.74v-0.2c0-0.73,0-1.47-0.94-1.47c-0.5,0-1,0.25-1,0.84v0.04h-0.6v-0.03c0-0.93,0.73-1.33,1.62-1.33
		c1.21,0,1.51,0.6,1.51,1.73v1.96c0,0.55,0,1.09,0.03,1.63h-0.57V108.41z M102.29,105.71h-0.2c-0.88,0-1.94,0.1-1.94,1.2
		c0,0.57,0.24,1.1,0.88,1.1c0.98,0,1.26-0.88,1.26-1.66v-0.63V105.71z"/>
	<path fill="#1D1D1B" d="M105.56,108.51c-1.06,0-1.46-0.6-1.46-1.53v-0.12h0.59v0.12c0,0.67,0.25,1.05,0.87,1.05
		c0.58,0,0.9-0.32,0.9-0.9s-0.25-0.85-0.9-1.2l-0.41-0.23c-0.53-0.29-0.9-0.65-0.9-1.32c0-0.86,0.58-1.3,1.41-1.3
		c0.96,0,1.37,0.5,1.37,1.46v0.05h-0.59v-0.12c0-0.57-0.24-0.9-0.83-0.9c-0.5,0-0.77,0.33-0.77,0.79s0.32,0.71,0.72,0.94l0.39,0.23
		c0.56,0.31,1.11,0.68,1.11,1.49C107.06,108,106.54,108.51,105.56,108.51z"/>
	<path fill="#1D1D1B" d="M111.06,108.41v-0.71c-0.32,0.51-0.73,0.79-1.35,0.79c-1.06,0-1.43-0.73-1.43-1.67v-3.62h0.59v3.24
		c0,0.69,0,1.53,0.94,1.53c1.04,0,1.19-0.89,1.19-1.71v-3.06h0.59v3.92c0,0.42,0,0.87,0.04,1.29H111.06z"/>
	<path fill="#1D1D1B" d="M114.95,103.67c-0.81,0-1.22,0.59-1.22,1.34v3.39h-0.59v-4.26c0-0.32-0.02-0.64-0.04-0.95h0.57v0.69
		c0.29-0.5,0.76-0.81,1.31-0.81c0.03,0,0.08,0,0.12,0.01v0.59c-0.05-0.01-0.1-0.01-0.16-0.01L114.95,103.67z"/>
	<path fill="#1D1D1B" d="M116.4,105.9v0.3c0,1.16,0.18,1.84,1.11,1.84s1.06-0.55,1.09-1.22h0.59c-0.04,0.95-0.41,1.69-1.68,1.69
		c-1.48,0-1.71-1.1-1.71-2.42s0-3.01,1.78-3.01c1.33,0,1.65,0.92,1.65,2.13v0.68h-2.82L116.4,105.9z M118.6,104.78
		c-0.04-0.63-0.29-1.22-1.02-1.22c-0.78,0-1.06,0.52-1.14,1.18c-0.02,0.23-0.03,0.45-0.03,0.68h2.2c0-0.13,0-0.43,0-0.64H118.6z"/>
	<path fill="#1D1D1B" d="M125.41,108.41v-3.51c0-0.8-0.12-1.27-0.81-1.27c-0.77,0-1.04,0.78-1.04,1.53v3.25h-0.59v-3.51
		c0-0.7-0.07-1.27-0.8-1.27c-0.77,0-1.05,0.9-1.05,1.65v3.13h-0.59v-4.21c0-0.33-0.02-0.66-0.04-0.99h0.58v0.77
		c0.22-0.45,0.63-0.88,1.24-0.88c0.83,0,1.06,0.52,1.15,0.88c0.29-0.51,0.64-0.88,1.26-0.88c1.08,0,1.28,0.89,1.28,1.77v3.55h-0.59
		L125.41,108.41z"/>
	<path fill="#1D1D1B" d="M127.95,105.9v0.3c0,1.16,0.18,1.84,1.11,1.84s1.06-0.55,1.09-1.22h0.59c-0.04,0.95-0.41,1.69-1.68,1.69
		c-1.48,0-1.71-1.1-1.71-2.42s0-3.01,1.78-3.01c1.33,0,1.65,0.92,1.65,2.13v0.68h-2.82L127.95,105.9z M130.15,104.78
		c-0.04-0.63-0.29-1.22-1.02-1.22c-0.78,0-1.06,0.52-1.14,1.18c-0.02,0.23-0.03,0.45-0.03,0.68h2.2c0-0.13,0-0.43,0-0.64H130.15z"/>
	<path fill="#1D1D1B" d="M134.8,108.41v-3.24c0-0.69,0.02-1.56-0.92-1.56s-1.21,0.92-1.21,1.75v3.06h-0.59v-3.92
		c0-0.42,0-0.87-0.04-1.29h0.57v0.71c0.32-0.51,0.76-0.83,1.38-0.83c1.04,0,1.39,0.7,1.39,1.64v3.68h-0.59H134.8z"/>
	<path fill="#1D1D1B" d="M138.24,108.45c-0.92,0-1.05-0.41-1.05-1.22v-3.54h-0.81v-0.49h0.81v-1l0.59-0.27v1.27h0.99v0.49h-0.99v3.5
		c0,0.65,0.19,0.73,0.61,0.73c0.11,0,0.27-0.02,0.38-0.04v0.53C138.59,108.43,138.42,108.45,138.24,108.45z"/>
</g>
<g>
	<path fill="#1D1D1B" d="M111.18,141.11h-0.79l-1.42-6.81l-1.48,6.81h-0.79l-1.71-7.47h0.66l1.46,6.79l1.5-6.79h0.79l1.43,6.79
		l1.52-6.79h0.61l-1.77,7.47H111.18z"/>
	<path fill="#1D1D1B" d="M116.11,141.11v-0.72c-0.39,0.56-0.75,0.8-1.45,0.8c-0.92,0-1.37-0.65-1.37-1.52
		c0-1.62,1.49-1.73,2.77-1.74v-0.2c0-0.73,0-1.47-0.94-1.47c-0.5,0-1,0.25-1,0.84v0.04h-0.6v-0.03c0-0.93,0.73-1.33,1.62-1.33
		c1.21,0,1.51,0.6,1.51,1.73v1.96c0,0.55,0.01,1.09,0.03,1.63h-0.57V141.11z M116.06,138.41h-0.2c-0.88,0-1.94,0.1-1.94,1.2
		c0,0.57,0.24,1.1,0.88,1.1c0.98,0,1.26-0.88,1.26-1.66v-0.63V138.41z"/>
	<path fill="#1D1D1B" d="M118.13,134.54v-0.79h0.71v0.79H118.13z M118.19,141.11v-5.21h0.59v5.21H118.19z"/>
	<path fill="#1D1D1B" d="M121.47,141.22c-1.06,0-1.46-0.6-1.46-1.53v-0.12h0.59v0.12c0,0.67,0.25,1.05,0.87,1.05
		c0.58,0,0.9-0.32,0.9-0.9s-0.25-0.85-0.9-1.2l-0.41-0.23c-0.53-0.29-0.9-0.65-0.9-1.32c0-0.86,0.58-1.3,1.4-1.3
		c0.96,0,1.37,0.5,1.37,1.46v0.05h-0.59v-0.12c0-0.57-0.24-0.9-0.83-0.9c-0.5,0-0.77,0.33-0.77,0.79s0.32,0.71,0.72,0.94l0.39,0.23
		c0.56,0.31,1.11,0.68,1.11,1.49c0,0.98-0.52,1.49-1.5,1.49L121.47,141.22z"/>
	<path fill="#1D1D1B" d="M125.52,141.15c-0.92,0-1.05-0.41-1.05-1.22v-3.54h-0.81v-0.49h0.81v-1l0.59-0.27v1.27h0.99v0.49h-0.99v3.5
		c0,0.65,0.19,0.73,0.61,0.73c0.11,0,0.27-0.02,0.38-0.04v0.53C125.87,141.13,125.7,141.15,125.52,141.15z"/>
</g>
<g>
	<path fill="#1D1D1B" d="M95.43,150.76v-3.51c0-0.8-0.12-1.27-0.81-1.27c-0.77,0-1.04,0.78-1.04,1.53v3.25h-0.59v-3.51
		c0-0.7-0.07-1.27-0.8-1.27c-0.77,0-1.05,0.9-1.05,1.65v3.13h-0.59v-4.21c0-0.33-0.02-0.66-0.04-0.99h0.58v0.77
		c0.22-0.45,0.63-0.88,1.24-0.88c0.83,0,1.06,0.52,1.15,0.88c0.29-0.51,0.64-0.88,1.26-0.88c1.08,0,1.28,0.89,1.28,1.77v3.55h-0.59
		L95.43,150.76z"/>
	<path fill="#1D1D1B" d="M97.96,148.25v0.3c0,1.16,0.18,1.84,1.11,1.84s1.06-0.55,1.1-1.22h0.59c-0.04,0.95-0.41,1.69-1.68,1.69
		c-1.48,0-1.71-1.1-1.71-2.42s0-3.01,1.78-3.01c1.33,0,1.65,0.92,1.65,2.13v0.68h-2.82L97.96,148.25z M100.16,147.13
		c-0.04-0.63-0.29-1.22-1.02-1.22c-0.77,0-1.06,0.52-1.14,1.18c-0.02,0.23-0.03,0.45-0.03,0.68h2.2c0-0.13,0-0.43,0-0.64
		L100.16,147.13z"/>
	<path fill="#1D1D1B" d="M104.58,150.76v-0.72c-0.39,0.56-0.75,0.8-1.45,0.8c-0.92,0-1.37-0.65-1.37-1.52
		c0-1.62,1.49-1.73,2.77-1.74v-0.2c0-0.73,0-1.47-0.94-1.47c-0.5,0-1,0.25-1,0.84v0.04h-0.6v-0.03c0-0.93,0.73-1.33,1.62-1.33
		c1.21,0,1.51,0.6,1.51,1.73v1.96c0,0.55,0,1.09,0.03,1.63h-0.57V150.76z M104.53,148.06h-0.2c-0.88,0-1.94,0.1-1.94,1.2
		c0,0.57,0.24,1.1,0.88,1.1c0.98,0,1.26-0.88,1.26-1.66v-0.63V148.06z"/>
	<path fill="#1D1D1B" d="M107.79,150.86c-1.06,0-1.46-0.6-1.46-1.53v-0.12h0.59v0.12c0,0.67,0.25,1.05,0.87,1.05
		c0.58,0,0.9-0.32,0.9-0.9s-0.25-0.85-0.9-1.2l-0.41-0.23c-0.53-0.29-0.9-0.65-0.9-1.32c0-0.86,0.58-1.3,1.41-1.3
		c0.96,0,1.37,0.5,1.37,1.46v0.05h-0.59v-0.12c0-0.57-0.24-0.9-0.83-0.9c-0.5,0-0.77,0.33-0.77,0.79s0.32,0.71,0.72,0.94l0.39,0.23
		c0.56,0.31,1.11,0.68,1.11,1.49C109.29,150.35,108.77,150.86,107.79,150.86L107.79,150.86z"/>
	<path fill="#1D1D1B" d="M113.29,150.76v-0.71c-0.32,0.51-0.73,0.79-1.35,0.79c-1.06,0-1.43-0.73-1.43-1.67v-3.62h0.59v3.24
		c0,0.69,0,1.53,0.94,1.53c1.04,0,1.19-0.89,1.19-1.71v-3.06h0.59v3.92c0,0.42,0,0.87,0.04,1.29L113.29,150.76L113.29,150.76z"/>
	<path fill="#1D1D1B" d="M117.19,146.03c-0.81,0-1.22,0.59-1.22,1.34v3.39h-0.59v-4.26c0-0.32-0.02-0.64-0.04-0.95h0.57v0.69
		c0.29-0.5,0.76-0.81,1.31-0.81c0.03,0,0.08,0,0.12,0.01v0.59c-0.05-0.01-0.1-0.01-0.16-0.01L117.19,146.03z"/>
	<path fill="#1D1D1B" d="M118.62,148.25v0.3c0,1.16,0.18,1.84,1.11,1.84s1.06-0.55,1.09-1.22h0.59c-0.04,0.95-0.41,1.69-1.68,1.69
		c-1.48,0-1.71-1.1-1.71-2.42s0-3.01,1.78-3.01c1.33,0,1.65,0.92,1.65,2.13v0.68h-2.82L118.62,148.25z M120.82,147.13
		c-0.04-0.63-0.29-1.22-1.02-1.22c-0.78,0-1.06,0.52-1.14,1.18c-0.02,0.23-0.03,0.45-0.03,0.68h2.2c0-0.13,0-0.43,0-0.64
		L120.82,147.13z"/>
	<path fill="#1D1D1B" d="M127.64,150.76v-3.51c0-0.8-0.12-1.27-0.81-1.27c-0.77,0-1.04,0.78-1.04,1.53v3.25h-0.59v-3.51
		c0-0.7-0.07-1.27-0.8-1.27c-0.77,0-1.05,0.9-1.05,1.65v3.13h-0.59v-4.21c0-0.33-0.02-0.66-0.04-0.99h0.58v0.77
		c0.22-0.45,0.63-0.88,1.24-0.88c0.83,0,1.06,0.52,1.15,0.88c0.29-0.51,0.64-0.88,1.26-0.88c1.08,0,1.28,0.89,1.28,1.77v3.55h-0.59
		L127.64,150.76z"/>
	<path fill="#1D1D1B" d="M130.17,148.25v0.3c0,1.16,0.18,1.84,1.11,1.84s1.06-0.55,1.09-1.22h0.59c-0.04,0.95-0.41,1.69-1.68,1.69
		c-1.48,0-1.71-1.1-1.71-2.42s0-3.01,1.78-3.01c1.33,0,1.65,0.92,1.65,2.13v0.68h-2.82L130.17,148.25z M132.37,147.13
		c-0.04-0.63-0.29-1.22-1.02-1.22c-0.78,0-1.06,0.52-1.14,1.18c-0.02,0.23-0.03,0.45-0.03,0.68h2.2c0-0.13,0-0.43,0-0.64
		L132.37,147.13z"/>
	<path fill="#1D1D1B" d="M137.02,150.76v-3.24c0-0.69,0.02-1.56-0.92-1.56s-1.21,0.92-1.21,1.75v3.06h-0.59v-3.92
		c0-0.42,0-0.87-0.04-1.29h0.57v0.71c0.32-0.51,0.76-0.83,1.38-0.83c1.04,0,1.39,0.7,1.39,1.64v3.68h-0.59H137.02z"/>
	<path fill="#1D1D1B" d="M140.47,150.8c-0.92,0-1.05-0.41-1.05-1.22v-3.54h-0.81v-0.49h0.81v-1l0.59-0.27v1.27H141v0.49h-0.99v3.5
		c0,0.65,0.19,0.73,0.61,0.73c0.11,0,0.27-0.02,0.38-0.04v0.53C140.82,150.78,140.65,150.8,140.47,150.8z"/>
</g>
<line fill="none" stroke="#9D9D9C" stroke-width="1.38" stroke-linecap="round" stroke-linejoin="round" stroke-dasharray="0,0,0,2.8" x1="89.96" y1="113.42" x2="141.74" y2="113.42"/>
<path fill="none" stroke="#9D9D9C" stroke-width="1.38" stroke-linecap="round" stroke-linejoin="round" d="M143.14,113.42
	L143.14,113.42 M87.16,113.42L87.16,113.42"/>
<line fill="none" stroke="#9D9D9C" stroke-width="1.38" stroke-linecap="round" stroke-linejoin="round" stroke-dasharray="0,0,0,2.78" x1="95.46" y1="154.69" x2="135.81" y2="154.69"/>
<path fill="none" stroke="#9D9D9C" stroke-width="1.38" stroke-linecap="round" stroke-linejoin="round" d="M137.2,154.69
	L137.2,154.69 M92.68,154.69L92.68,154.69"/>
<g>
	<g>
		
			<line fill="none" stroke="#9D9D9C" stroke-width="1.38" stroke-linecap="round" stroke-linejoin="round" stroke-dasharray="0,0,0,2.8" x1="81.09" y1="384.91" x2="17.97" y2="384.91"/>
	</g>
</g>
<line fill="none" stroke="#9D9D9C" stroke-width="1.38" stroke-linecap="round" stroke-linejoin="round" stroke-dasharray="0,0,0,2.76" x1="16.57" y1="382.15" x2="16.57" y2="220.74"/>
<g>
	<g>
		<path fill="none" stroke="#9D9D9C" stroke-width="1.38" stroke-linecap="round" stroke-linejoin="round" d="M16.57,219.36
			L16.57,219.36 M16.57,384.91L16.57,384.91 M83.9,384.91L83.9,384.91"/>
		
			<line fill="none" stroke="#9D9D9C" stroke-width="1.38" stroke-linecap="round" stroke-linejoin="round" stroke-dasharray="0,0,0,2.77" x1="16.57" y1="149.13" x2="16.57" y2="11.77"/>
		
			<line fill="none" stroke="#9D9D9C" stroke-width="1.38" stroke-linecap="round" stroke-linejoin="round" stroke-dasharray="0,0,0,2.8" x1="19.37" y1="10.38" x2="90.64" y2="10.38"/>
		<path fill="none" stroke="#9D9D9C" stroke-width="1.38" stroke-linecap="round" stroke-linejoin="round" d="M92.04,10.38
			L92.04,10.38 M16.57,10.38L16.57,10.38 M16.57,151.9L16.57,151.9"/>
	</g>
</g>
<g>
	<path fill="#1D1D1B" d="M16.86,205.58v1.75H9.39v-1.79c0-1.32,0.56-1.86,1.87-1.86c0.87,0,1.38,0.19,1.71,1.04
		c0.28-1,0.89-1.19,1.86-1.19c1.47,0,2.04,0.6,2.04,2.04L16.86,205.58z M9.93,205.71v0.99h2.8v-1.09c0-0.97-0.57-1.29-1.48-1.29
		C10.24,204.32,9.93,204.76,9.93,205.71L9.93,205.71z M13.26,205.58v1.13h3.07v-0.91c0-1.13-0.27-1.61-1.49-1.61
		C13.85,204.19,13.26,204.53,13.26,205.58z"/>
	<path fill="#1D1D1B" d="M16.96,200.67c0,1.51-1.04,1.69-2.66,1.69c-1.52,0-2.77-0.19-2.77-1.77s1.15-1.67,2.75-1.67
		C15.99,198.92,16.96,199.22,16.96,200.67z M14.11,199.53c-0.85,0-2.1-0.05-2.1,1.07c0,1.19,1.29,1.15,2.12,1.15h0.6
		c0.8,0,1.76-0.03,1.76-1.11c0-1.01-0.92-1.12-1.74-1.12h-0.64L14.11,199.53z"/>
	<path fill="#1D1D1B" d="M16.86,194.89h-0.62c0.48,0.32,0.7,0.64,0.7,1.23c0,1.57-1.58,1.66-2.81,1.66c-1.15,0-2.59-0.24-2.59-1.66
		c0-0.64,0.23-0.94,0.61-1.17H9.39v-0.59h6.47c0.33,0,0.67-0.02,1-0.04V194.89L16.86,194.89z M12.04,196.06
		c0,1.07,1.28,1.13,2.11,1.13c1.34,0,2.29-0.16,2.29-1.07c0-1.16-1.12-1.19-2.14-1.19c-1.26,0-2.26,0.08-2.26,1.14L12.04,196.06z"/>
	<path fill="#1D1D1B" d="M18.84,191.79v0.58l-1.96-0.58l-5.23,1.56v-0.63l4.42-1.22l-4.42-1.19v-0.58L18.84,191.79L18.84,191.79z"/>
	<path fill="#1D1D1B" d="M16.86,183.7h-3.25c-0.69,0-1.55-0.02-1.55,0.92s0.82,1.21,1.71,1.21h3.09v0.59H9.39v-0.59h2.9
		c-0.46-0.31-0.75-0.72-0.75-1.32c0-1.06,0.71-1.39,1.65-1.39h3.67v0.59V183.7z"/>
	<path fill="#1D1D1B" d="M14.35,181.17h0.3c1.16,0,1.84-0.18,1.84-1.11s-0.55-1.06-1.22-1.09v-0.59c0.95,0.04,1.69,0.41,1.69,1.68
		c0,1.48-1.1,1.71-2.42,1.71s-3.01,0-3.01-1.78c0-1.33,0.92-1.65,2.13-1.65h0.68v2.82L14.35,181.17z M13.23,178.97
		c-0.63,0.04-1.22,0.29-1.22,1.02c0,0.78,0.52,1.06,1.18,1.14c0.23,0.02,0.45,0.03,0.68,0.03v-2.2c-0.13,0-0.43,0-0.64,0V178.97z"/>
	<path fill="#1D1D1B" d="M10.29,177.08H9.5v-0.71h0.79V177.08z M16.86,177.02h-5.21v-0.59h5.21V177.02z"/>
	<path fill="#1D1D1B" d="M12.54,171.66h4.54c1.2,0,1.84,0.46,1.84,1.75c0,1.01-0.51,1.52-1.49,1.54v-0.61
		c0.65,0,1.02-0.25,1.02-0.94c0-1.05-0.73-1.14-1.62-1.14h-0.66c0.46,0.31,0.63,0.67,0.63,1.22c0,1.5-1.34,1.6-2.53,1.6
		c-1.3,0-2.74-0.23-2.74-1.63c0-0.67,0.23-0.97,0.73-1.24h-0.62v-0.58c0.31,0.01,0.58,0.03,0.89,0.03L12.54,171.66z M12.03,173.36
		c0,1.13,1.45,1.12,2.24,1.12c0.89,0,2.05,0,2.05-1.04c0-1.27-1.46-1.21-2.36-1.21c-0.85,0-1.94,0.06-1.94,1.14L12.03,173.36z"/>
	<path fill="#1D1D1B" d="M16.86,167.4h-3.25c-0.69,0-1.55-0.02-1.55,0.92s0.82,1.21,1.71,1.21h3.09v0.59H9.39v-0.59h2.9
		c-0.46-0.31-0.75-0.72-0.75-1.32c0-1.06,0.71-1.39,1.65-1.39h3.67v0.59V167.4z"/>
	<path fill="#1D1D1B" d="M16.9,163.96c0,0.92-0.41,1.05-1.22,1.05h-3.54v0.81h-0.49v-0.81h-1l-0.27-0.59h1.27v-0.99h0.49v0.99h3.5
		c0.65,0,0.73-0.19,0.73-0.61c0-0.11-0.02-0.27-0.04-0.38h0.53C16.88,163.61,16.9,163.78,16.9,163.96z"/>
</g>
<line fill="none" stroke="#9D9D9C" stroke-width="1.38" stroke-linecap="round" stroke-linejoin="round" stroke-dasharray="0,0,0,2.81" x1="82.86" y1="197.74" x2="148.84" y2="197.74"/>
<path fill="none" stroke="#9D9D9C" stroke-width="1.38" stroke-linecap="round" stroke-linejoin="round" d="M150.24,197.74
	L150.24,197.74 M80.05,197.74L80.05,197.74"/>
<line fill="none" stroke="#9D9D9C" stroke-width="1.38" stroke-linecap="round" stroke-linejoin="round" stroke-dasharray="0,0,0,2.65" x1="84.07" y1="214.06" x2="111.92" y2="214.06"/>
<path fill="none" stroke="#9D9D9C" stroke-width="1.38" stroke-linecap="round" stroke-linejoin="round" d="M113.25,214.06
	L113.25,214.06 M81.42,214.06L81.42,214.06"/>
<g>
	<path fill="#1D1D1B" d="M114.23,182.14v-3.56h-2.8v3.56h-0.62v-7.47h0.62v3.36h2.8v-3.36h0.62v7.47H114.23z"/>
	<path fill="#1D1D1B" d="M116.48,175.57v-0.79h0.71v0.79H116.48z M116.54,182.14v-5.21h0.59v5.21H116.54z"/>
	<path fill="#1D1D1B" d="M120.48,182.21c-0.53,0-0.88-0.17-1.2-0.6v2.51h-0.59v-5.98c0-0.39,0.01-0.82-0.04-1.21h0.57v0.64
		c0.3-0.5,0.71-0.75,1.29-0.75c1.48,0,1.6,1.47,1.6,2.59C122.11,180.61,122.09,182.21,120.48,182.21L120.48,182.21z M120.43,177.33
		c-1.19,0-1.18,1.39-1.18,2.24c0,0.9-0.04,2.13,1.19,2.13c1.15,0,1.07-1.49,1.07-2.28S121.51,177.33,120.43,177.33L120.43,177.33z"
		/>
</g>
<g>
	<path fill="#1D1D1B" d="M92.82,188.05c0-0.64-0.17-1.12-0.89-1.12c-1.03,0-1.06,1.19-1.06,2.26c0,1.79,0.29,2.21,1.03,2.21
		s0.89-0.5,0.91-1.15h0.59c0,0.98-0.41,1.62-1.47,1.62c-1.56,0-1.68-1.12-1.68-2.7c0-1.28,0.04-2.73,1.7-2.73
		c1.15,0,1.44,0.58,1.46,1.59h-0.59V188.05z"/>
	<path fill="#1D1D1B" d="M94.51,185.21v-0.79h0.71v0.79H94.51z M94.57,191.78v-5.21h0.59v5.21H94.57z"/>
	<path fill="#1D1D1B" d="M98.53,187.05c-0.81,0-1.22,0.59-1.22,1.34v3.39h-0.59v-4.26c0-0.32-0.02-0.64-0.04-0.95h0.57v0.69
		c0.29-0.5,0.76-0.81,1.31-0.81c0.03,0,0.08,0,0.12,0.01v0.59c-0.05-0.01-0.1-0.01-0.16-0.01L98.53,187.05z"/>
	<path fill="#1D1D1B" d="M101.94,188.05c0-0.64-0.17-1.12-0.89-1.12c-1.03,0-1.06,1.19-1.06,2.26c0,1.79,0.29,2.21,1.03,2.21
		s0.89-0.5,0.91-1.15h0.59c0,0.98-0.41,1.62-1.47,1.62c-1.56,0-1.68-1.12-1.68-2.7c0-1.28,0.04-2.73,1.7-2.73
		c1.15,0,1.44,0.58,1.46,1.59h-0.59V188.05z"/>
	<path fill="#1D1D1B" d="M106.45,191.78v-0.71c-0.32,0.51-0.73,0.8-1.35,0.8c-1.06,0-1.43-0.73-1.43-1.67v-3.62h0.59v3.24
		c0,0.69,0,1.53,0.94,1.53c1.04,0,1.19-0.89,1.19-1.71v-3.06h0.59v3.92c0,0.42,0,0.87,0.04,1.29h-0.57V191.78z"/>
	<path fill="#1D1D1B" d="M113.41,191.78v-3.51c0-0.79-0.12-1.27-0.81-1.27c-0.77,0-1.04,0.78-1.04,1.53v3.25h-0.59v-3.51
		c0-0.7-0.07-1.27-0.79-1.27c-0.78,0-1.05,0.9-1.05,1.65v3.13h-0.59v-4.21c0-0.33-0.02-0.66-0.04-0.99h0.58v0.76
		c0.22-0.44,0.63-0.88,1.24-0.88c0.83,0,1.06,0.52,1.15,0.88c0.29-0.51,0.64-0.88,1.26-0.88c1.08,0,1.28,0.89,1.28,1.77v3.55h-0.59
		L113.41,191.78z"/>
	<path fill="#1D1D1B" d="M116.41,187.06v4.72h-0.59v-4.72h-0.8v-0.49h0.8V186c0-0.91,0.06-1.75,1.29-1.75c0.1,0,0.22,0.01,0.3,0.02
		v0.52c-0.07,0-0.13,0-0.21,0c-0.63,0-0.79,0.25-0.79,0.94v0.85h1v0.49h-1L116.41,187.06z"/>
	<path fill="#1D1D1B" d="M118.68,189.27v0.3c0,1.16,0.18,1.84,1.11,1.84s1.06-0.55,1.09-1.22h0.59c-0.04,0.95-0.41,1.69-1.68,1.69
		c-1.48,0-1.71-1.1-1.71-2.42s0-3.01,1.78-3.01c1.33,0,1.65,0.92,1.65,2.13v0.68h-2.82L118.68,189.27z M120.88,188.15
		c-0.04-0.63-0.29-1.22-1.02-1.22c-0.78,0-1.06,0.52-1.14,1.18c-0.02,0.23-0.03,0.45-0.03,0.68h2.2c0-0.13,0-0.43,0-0.64
		L120.88,188.15z"/>
	<path fill="#1D1D1B" d="M124.62,187.05c-0.81,0-1.22,0.59-1.22,1.34v3.39h-0.59v-4.26c0-0.32-0.02-0.64-0.04-0.95h0.57v0.69
		c0.29-0.5,0.76-0.81,1.31-0.81c0.03,0,0.08,0,0.12,0.01v0.59c-0.05-0.01-0.1-0.01-0.16-0.01L124.62,187.05z"/>
	<path fill="#1D1D1B" d="M126.07,189.27v0.3c0,1.16,0.18,1.84,1.11,1.84s1.06-0.55,1.09-1.22h0.59c-0.04,0.95-0.41,1.69-1.68,1.69
		c-1.48,0-1.71-1.1-1.71-2.42s0-3.01,1.78-3.01c1.33,0,1.65,0.92,1.65,2.13v0.68h-2.82L126.07,189.27z M128.27,188.15
		c-0.04-0.63-0.29-1.22-1.02-1.22c-0.78,0-1.06,0.52-1.14,1.18c-0.02,0.23-0.03,0.45-0.03,0.68h2.2c0-0.13,0-0.43,0-0.64
		L128.27,188.15z"/>
	<path fill="#1D1D1B" d="M132.92,191.78v-3.24c0-0.69,0.02-1.56-0.92-1.56s-1.21,0.92-1.21,1.75v3.06h-0.59v-3.92
		c0-0.42,0-0.87-0.04-1.29h0.57v0.71c0.32-0.51,0.76-0.83,1.38-0.83c1.04,0,1.39,0.7,1.39,1.64v3.68h-0.59H132.92z"/>
	<path fill="#1D1D1B" d="M137.42,188.05c0-0.64-0.17-1.12-0.89-1.12c-1.03,0-1.06,1.19-1.06,2.26c0,1.79,0.29,2.21,1.03,2.21
		s0.89-0.5,0.91-1.15H138c0,0.98-0.41,1.62-1.47,1.62c-1.56,0-1.68-1.12-1.68-2.7c0-1.28,0.04-2.73,1.7-2.73
		c1.15,0,1.44,0.58,1.46,1.59h-0.59L137.42,188.05z"/>
	<path fill="#1D1D1B" d="M139.57,189.27v0.3c0,1.16,0.18,1.84,1.11,1.84s1.06-0.55,1.09-1.22h0.59c-0.04,0.95-0.41,1.69-1.68,1.69
		c-1.48,0-1.71-1.1-1.71-2.42s0-3.01,1.78-3.01c1.33,0,1.65,0.92,1.65,2.13v0.68h-2.82L139.57,189.27z M141.77,188.15
		c-0.04-0.63-0.29-1.22-1.02-1.22c-0.78,0-1.06,0.52-1.14,1.18c-0.02,0.23-0.03,0.45-0.03,0.68h2.2c0-0.13,0-0.43,0-0.64
		L141.77,188.15z"/>
</g>
<g>
	<path fill="#1D1D1B" d="M91.72,220.48v6.92H91.1v-6.92h-1.73v-0.55h4.08v0.55h-1.74H91.72z"/>
	<path fill="#1D1D1B" d="M96.81,227.4v-3.25c0-0.69,0.02-1.55-0.92-1.55s-1.21,0.82-1.21,1.71v3.09h-0.59v-7.47h0.59v2.9
		c0.31-0.46,0.72-0.75,1.32-0.75c1.06,0,1.39,0.71,1.39,1.65v3.67H96.8L96.81,227.4z"/>
	<path fill="#1D1D1B" d="M98.88,220.83v-0.79h0.71v0.79H98.88z M98.94,227.4v-5.21h0.59v5.21H98.94z"/>
	<path fill="#1D1D1B" d="M104.31,223.09v4.55c0,1.2-0.46,1.84-1.75,1.84c-1.01,0-1.52-0.51-1.54-1.49h0.61
		c0,0.65,0.25,1.02,0.94,1.02c1.05,0,1.14-0.73,1.14-1.62v-0.66c-0.31,0.45-0.67,0.63-1.22,0.63c-1.5,0-1.6-1.34-1.6-2.53
		c0-1.3,0.23-2.74,1.63-2.74c0.67,0,0.97,0.23,1.24,0.73v-0.62h0.58C104.34,222.51,104.31,222.78,104.31,223.09z M102.61,222.58
		c-1.13,0-1.12,1.45-1.12,2.24c0,0.89-0.01,2.06,1.04,2.06c1.27,0,1.21-1.46,1.21-2.36c0-0.85-0.06-1.94-1.14-1.94H102.61z"/>
	<path fill="#1D1D1B" d="M108.57,227.4v-3.25c0-0.69,0.02-1.55-0.92-1.55s-1.21,0.82-1.21,1.71v3.09h-0.59v-7.47h0.59v2.9
		c0.31-0.46,0.72-0.75,1.32-0.75c1.06,0,1.39,0.71,1.39,1.65v3.67h-0.59L108.57,227.4z"/>
</g>
<g>
	<path fill="#1D1D1B" d="M94.09,237.05h-0.74l-1.11-4.43l-1.03,4.43h-0.74l-1.36-5.21h0.62l1.14,4.63l1.05-4.63h0.72l1.13,4.63
		l1.09-4.63h0.59l-1.35,5.21H94.09z"/>
	<path fill="#1D1D1B" d="M96.42,230.48v-0.79h0.71v0.79H96.42z M96.48,237.05v-5.21h0.59v5.21H96.48z"/>
	<path fill="#1D1D1B" d="M101.32,237.05v-0.62c-0.32,0.49-0.64,0.7-1.23,0.7c-1.57,0-1.66-1.58-1.66-2.81
		c0-1.15,0.24-2.59,1.66-2.59c0.64,0,0.94,0.23,1.17,0.61v-2.76h0.59v6.47c0,0.33,0.02,0.67,0.04,1L101.32,237.05L101.32,237.05z
		 M100.15,232.23c-1.07,0-1.12,1.28-1.12,2.11c0,1.34,0.15,2.29,1.07,2.29c1.16,0,1.19-1.12,1.19-2.14
		C101.29,233.23,101.21,232.23,100.15,232.23z"/>
	<path fill="#1D1D1B" d="M104.72,237.09c-0.92,0-1.05-0.41-1.05-1.22v-3.54h-0.81v-0.49h0.81v-1l0.59-0.27v1.27h0.99v0.49h-0.99v3.5
		c0,0.65,0.19,0.73,0.61,0.73c0.11,0,0.27-0.02,0.38-0.04v0.53C105.08,237.07,104.9,237.09,104.72,237.09z"/>
	<path fill="#1D1D1B" d="M108.99,237.05v-3.25c0-0.69,0.02-1.55-0.92-1.55s-1.21,0.82-1.21,1.71v3.09h-0.59v-7.47h0.59v2.9
		c0.31-0.46,0.72-0.75,1.32-0.75c1.06,0,1.39,0.71,1.39,1.65v3.67h-0.59L108.99,237.05z"/>
</g>
<line fill="none" stroke="#9D9D9C" stroke-width="1.38" stroke-linecap="round" stroke-linejoin="round" stroke-dasharray="0,0,0,2.72" x1="124.29" y1="206.15" x2="204.44" y2="206.15"/>
<line fill="none" stroke="#9D9D9C" stroke-width="1.38" stroke-linecap="round" stroke-linejoin="round" stroke-dasharray="0,0,0,2.79" x1="205.8" y1="208.94" x2="205.8" y2="255.04"/>
<path fill="none" stroke="#9D9D9C" stroke-width="1.38" stroke-linecap="round" stroke-linejoin="round" d="M205.8,256.44
	L205.8,256.44 M205.8,206.15L205.8,206.15 M121.58,206.15L121.58,206.15"/>
<path fill="#1D1D1B" d="M208.32,178.72c0,1.39-0.73,1.97-2.09,1.97h-0.08v-0.65h0.08c0.91,0,1.55-0.27,1.55-1.31
	c0-0.91-0.53-1.24-1.35-1.24c-0.77,0-1.12,0.28-1.56,1l-0.51,0.83c-0.44,0.72-0.95,1.28-1.99,1.28c-1.14,0-1.81-0.8-1.81-1.9
	s0.56-1.83,1.76-1.83h0.23v0.64h-0.17c-0.78,0-1.28,0.25-1.28,1.21c0,0.76,0.48,1.22,1.25,1.22s1.09-0.33,1.48-0.96l0.54-0.88
	c0.57-0.93,1.04-1.27,2.04-1.27c1.22,0,1.92,0.73,1.92,1.89H208.32z"/>
<g>
	<path fill="#1D1D1B" d="M208.17,175.48h-7.47v-0.59h7.47V175.48z"/>
	<path fill="#1D1D1B" d="M205.66,172.93h0.3c1.16,0,1.84-0.18,1.84-1.11s-0.55-1.06-1.22-1.09v-0.59c0.95,0.04,1.69,0.41,1.69,1.68
		c0,1.48-1.1,1.71-2.42,1.71s-3.01,0-3.01-1.78c0-1.33,0.92-1.65,2.13-1.65h0.68v2.82L205.66,172.93z M204.54,170.73
		c-0.63,0.04-1.22,0.29-1.22,1.02c0,0.78,0.52,1.06,1.18,1.14c0.23,0.02,0.45,0.03,0.68,0.03v-2.2c-0.13,0-0.43,0-0.64,0
		L204.54,170.73z"/>
	<path fill="#1D1D1B" d="M205.66,168.39h0.3c1.16,0,1.84-0.18,1.84-1.11s-0.55-1.06-1.22-1.09v-0.59c0.95,0.04,1.69,0.41,1.69,1.68
		c0,1.48-1.1,1.71-2.42,1.71s-3.01,0-3.01-1.78c0-1.33,0.92-1.65,2.13-1.65h0.68v2.82L205.66,168.39z M204.54,166.19
		c-0.63,0.04-1.22,0.29-1.22,1.02c0,0.78,0.52,1.06,1.18,1.14c0.23,0.02,0.45,0.03,0.68,0.03v-2.2c-0.13,0-0.43,0-0.64,0
		L204.54,166.19z"/>
	<path fill="#1D1D1B" d="M208.17,162.73v0.67l-5.21,1.48v-0.64l4.54-1.19l-4.54-1.22v-0.57L208.17,162.73L208.17,162.73z"/>
	<path fill="#1D1D1B" d="M205.66,159.92h0.3c1.16,0,1.84-0.18,1.84-1.11s-0.55-1.06-1.22-1.1v-0.59c0.95,0.04,1.69,0.41,1.69,1.68
		c0,1.48-1.1,1.71-2.42,1.71s-3.01,0-3.01-1.78c0-1.33,0.92-1.65,2.13-1.65h0.68v2.82L205.66,159.92z M204.54,157.72
		c-0.63,0.04-1.22,0.29-1.22,1.02c0,0.77,0.52,1.06,1.18,1.14c0.23,0.02,0.45,0.03,0.68,0.03v-2.2c-0.13,0-0.43,0-0.64,0
		L204.54,157.72z"/>
	<path fill="#1D1D1B" d="M208.17,153.48h-7.47v-0.59h7.47V153.48z"/>
	<path fill="#1D1D1B" d="M205.66,150.93h0.3c1.16,0,1.84-0.17,1.84-1.1s-0.55-1.06-1.22-1.1v-0.59c0.95,0.04,1.69,0.41,1.69,1.68
		c0,1.48-1.1,1.71-2.42,1.71s-3.01-0.01-3.01-1.78c0-1.33,0.92-1.65,2.13-1.65h0.68v2.82L205.66,150.93z M204.54,148.73
		c-0.63,0.04-1.22,0.29-1.22,1.02c0,0.77,0.52,1.06,1.18,1.14c0.23,0.02,0.45,0.03,0.68,0.03v-2.2c-0.13,0-0.43,0-0.64,0
		L204.54,148.73z"/>
	<path fill="#1D1D1B" d="M208.17,144.07h-3.24c-0.69,0-1.56-0.02-1.56,0.92s0.92,1.21,1.75,1.21h3.06v0.59h-3.92
		c-0.42,0-0.87,0.01-1.29,0.04v-0.57h0.71c-0.51-0.32-0.83-0.76-0.83-1.38c0-1.04,0.7-1.39,1.64-1.39h3.68v0.59V144.07z"/>
	<path fill="#1D1D1B" d="M203.85,138.72h4.55c1.2,0,1.84,0.46,1.84,1.75c0,1.01-0.51,1.52-1.49,1.54v-0.61
		c0.65,0,1.02-0.25,1.02-0.94c0-1.05-0.73-1.14-1.62-1.14h-0.66c0.45,0.31,0.63,0.67,0.63,1.22c0,1.5-1.34,1.6-2.53,1.6
		c-1.3,0-2.74-0.23-2.74-1.63c0-0.67,0.23-0.97,0.73-1.24h-0.62v-0.58C203.27,138.7,203.54,138.72,203.85,138.72L203.85,138.72z
		 M203.34,140.43c0,1.12,1.45,1.12,2.24,1.12c0.89,0,2.06,0,2.06-1.04c0-1.27-1.46-1.21-2.36-1.21c-0.85,0-1.94,0.06-1.94,1.14
		V140.43z"/>
	<path fill="#1D1D1B" d="M208.21,135.87c0,0.92-0.41,1.05-1.22,1.05h-3.54v0.81h-0.49v-0.81h-1l-0.27-0.59h1.27v-0.99h0.49v0.99h3.5
		c0.65,0,0.73-0.19,0.73-0.61c0-0.11-0.02-0.27-0.04-0.38h0.53C208.19,135.52,208.21,135.69,208.21,135.87z"/>
	<path fill="#1D1D1B" d="M208.17,131.59h-3.25c-0.69,0-1.55-0.02-1.55,0.92s0.82,1.21,1.71,1.21h3.09v0.59h-7.47v-0.59h2.9
		c-0.46-0.31-0.75-0.72-0.75-1.32c0-1.06,0.71-1.39,1.65-1.39h3.67v0.59L208.17,131.59z"/>
</g>
<g>
	<g>
		
			<line fill="none" stroke="#9D9D9C" stroke-width="1.38" stroke-linecap="round" stroke-linejoin="round" stroke-dasharray="0,0,0,2.73" x1="151.39" y1="384.89" x2="204.72" y2="384.89"/>
	</g>
</g>
<line fill="none" stroke="#9D9D9C" stroke-width="1.38" stroke-linecap="round" stroke-linejoin="round" stroke-dasharray="0,0,0,2.74" x1="206.08" y1="382.15" x2="206.08" y2="325.98"/>
<g>
	<g>
		<path fill="none" stroke="#9D9D9C" stroke-width="1.38" stroke-linecap="round" stroke-linejoin="round" d="M206.08,324.61
			L206.08,324.61 M206.08,384.89L206.08,384.89 M148.66,384.89L148.66,384.89"/>
	</g>
</g>
<line fill="none" stroke="#9D9D9C" stroke-width="1.38" stroke-linecap="round" stroke-linejoin="round" stroke-dasharray="0,0,0,2.74" x1="172.46" y1="203.26" x2="203.92" y2="203.26"/>
<line fill="none" stroke="#9D9D9C" stroke-width="1.38" stroke-linecap="round" stroke-linejoin="round" stroke-dasharray="0,0,0,2.77" x1="205.29" y1="200.5" x2="205.29" y2="188.05"/>
<path fill="none" stroke="#9D9D9C" stroke-width="1.38" stroke-linecap="round" stroke-linejoin="round" d="M205.29,186.67
	L205.29,186.67 M205.29,203.26L205.29,203.26 M169.72,203.26L169.72,203.26"/>
<g>
	<path fill="#1D1D1B" d="M208.17,309.09h-7.47v-0.62h6.92v-2.36h0.55V309.09L208.17,309.09z"/>
	<path fill="#1D1D1B" d="M205.66,304.68h0.3c1.16,0,1.84-0.18,1.84-1.11s-0.55-1.06-1.22-1.09v-0.59c0.95,0.04,1.69,0.41,1.69,1.68
		c0,1.48-1.1,1.71-2.42,1.71s-3.01,0-3.01-1.78c0-1.33,0.92-1.65,2.13-1.65h0.68v2.82L205.66,304.68z M204.54,302.48
		c-0.63,0.04-1.22,0.29-1.22,1.02c0,0.78,0.52,1.06,1.18,1.14c0.23,0.02,0.45,0.03,0.68,0.03v-2.2c-0.13,0-0.43,0-0.64,0
		L204.54,302.48z"/>
	<path fill="#1D1D1B" d="M203.85,297.32h4.55c1.2,0,1.84,0.46,1.84,1.75c0,1.01-0.51,1.52-1.49,1.54V300c0.65,0,1.02-0.25,1.02-0.94
		c0-1.05-0.73-1.14-1.62-1.14h-0.66c0.45,0.31,0.63,0.67,0.63,1.22c0,1.5-1.34,1.6-2.53,1.6c-1.3,0-2.74-0.23-2.74-1.63
		c0-0.67,0.23-0.97,0.73-1.24h-0.62v-0.58C203.27,297.3,203.54,297.32,203.85,297.32L203.85,297.32z M203.34,299.02
		c0,1.13,1.45,1.12,2.24,1.12c0.89,0,2.06,0,2.06-1.04c0-1.27-1.46-1.21-2.36-1.21c-0.85,0-1.94,0.06-1.94,1.14V299.02z"/>
	<path fill="#1D1D1B" d="M208.17,293.46h-7.47v-0.59h7.47V293.46z"/>
	<path fill="#1D1D1B" d="M205.66,290.91h0.3c1.16,0,1.84-0.18,1.84-1.11s-0.55-1.06-1.22-1.09v-0.59c0.95,0.04,1.69,0.41,1.69,1.68
		c0,1.48-1.1,1.71-2.42,1.71s-3.01,0-3.01-1.78c0-1.33,0.92-1.65,2.13-1.65h0.68v2.82L205.66,290.91z M204.54,288.71
		c-0.63,0.04-1.22,0.29-1.22,1.02c0,0.78,0.52,1.06,1.18,1.14c0.23,0.02,0.45,0.03,0.68,0.03v-2.2c-0.13,0-0.43,0-0.64,0
		L204.54,288.71z"/>
	<path fill="#1D1D1B" d="M208.17,284.06h-3.24c-0.69,0-1.56-0.02-1.56,0.92s0.92,1.21,1.75,1.21h3.06v0.59h-3.92
		c-0.42,0-0.87,0-1.29,0.04v-0.57h0.71c-0.51-0.32-0.83-0.76-0.83-1.38c0-1.04,0.7-1.39,1.64-1.39h3.68v0.59V284.06z"/>
	<path fill="#1D1D1B" d="M203.85,278.71h4.55c1.2,0,1.84,0.46,1.84,1.75c0,1.01-0.51,1.52-1.49,1.54v-0.61
		c0.65,0,1.02-0.25,1.02-0.94c0-1.05-0.73-1.14-1.62-1.14h-0.66c0.45,0.31,0.63,0.67,0.63,1.22c0,1.5-1.34,1.6-2.53,1.6
		c-1.3,0-2.74-0.23-2.74-1.63c0-0.67,0.23-0.97,0.73-1.24h-0.62v-0.58C203.27,278.69,203.54,278.71,203.85,278.71L203.85,278.71z
		 M203.34,280.41c0,1.13,1.45,1.12,2.24,1.12c0.89,0,2.06,0,2.06-1.04c0-1.27-1.46-1.21-2.36-1.21c-0.85,0-1.94,0.06-1.94,1.14
		V280.41z"/>
	<path fill="#1D1D1B" d="M208.21,275.86c0,0.92-0.41,1.05-1.22,1.05h-3.54v0.81h-0.49v-0.81h-1l-0.27-0.59h1.27v-0.99h0.49v0.99h3.5
		c0.65,0,0.73-0.19,0.73-0.61c0-0.11-0.02-0.27-0.04-0.38h0.53C208.19,275.51,208.21,275.68,208.21,275.86z"/>
	<path fill="#1D1D1B" d="M208.17,271.58h-3.25c-0.69,0-1.55-0.02-1.55,0.92s0.82,1.21,1.71,1.21h3.09v0.59h-7.47v-0.59h2.9
		c-0.46-0.31-0.75-0.72-0.75-1.32c0-1.06,0.71-1.39,1.65-1.39h3.67v0.59L208.17,271.58z"/>
</g>
<line fill="none" stroke="#9D9D9C" stroke-width="1.38" stroke-linecap="round" stroke-linejoin="round" stroke-dasharray="0,0,0,2.69" x1="162.72" y1="84.65" x2="204.45" y2="84.65"/>
<line fill="none" stroke="#9D9D9C" stroke-width="1.38" stroke-linecap="round" stroke-linejoin="round" stroke-dasharray="0,0,0,2.72" x1="205.8" y1="87.37" x2="205.8" y2="124.11"/>
<path fill="none" stroke="#9D9D9C" stroke-width="1.38" stroke-linecap="round" stroke-linejoin="round" d="M205.8,125.47
	L205.8,125.47 M205.8,84.66L205.8,84.66 M160.03,84.66L160.03,84.66"/>
</svg>
