<?xml version="1.0" encoding="utf-8"?>
<!-- Generator: Adobe Illustrator 27.0.1, SVG Export Plug-In . SVG Version: 6.00 Build 0)  -->
<svg version="1.1" id="Ebene_1" xmlns="http://www.w3.org/2000/svg" xmlns:xlink="http://www.w3.org/1999/xlink" x="0px" y="0px"
	 viewBox="0 0 220 399" enable-background="new 0 0 220 399" xml:space="preserve">
<polygon fill="none" stroke="#C6C6C6" stroke-width="1.38" stroke-linejoin="round" points="122.02,391.775 123.39,391.775 
	125.22,390.805 127.05,391.775 131.62,391.775 133.9,391.285 136.18,390.805 136.64,390.315 139.84,389.825 140.76,389.335 
	141.67,387.885 141.67,386.905 140.3,385.445 139.39,383.025 138.02,381.075 136.64,379.615 134.82,378.645 134.35,377.185 
	135.28,375.735 135.28,374.275 133.9,369.405 133.9,364.545 134.82,359.205 137.11,349.485 140.76,336.375 143.04,328.585 
	143.95,320.805 143.04,311.095 140.76,301.365 139.84,297.485 139.84,290.675 139.39,284.355 140.3,278.525 143.04,270.755 
	145.78,259.585 148.52,244.505 151.12,217.305 151.12,209.525 150.36,204.655 149.9,200.775 148.98,196.395 148.52,192.505 
	147.61,188.135 145.33,183.275 145.78,180.845 145.33,177.935 144.42,174.035 143.04,170.635 142.58,168.195 142.58,163.835 
	143.51,161.895 145.78,156.055 147.61,151.205 149.9,144.885 152.03,135.145 152.95,144.385 155.22,150.225 157.51,153.145 
	157.97,157.035 159.34,159.945 159.34,169.185 160.25,175.015 162.55,182.785 169.4,195.895 171.67,202.715 173.05,209.525 
	173.05,213.405 172.59,215.835 171.21,217.305 168.48,222.635 168.02,225.565 167.11,227.985 165.74,229.925 165.27,231.395 
	164.82,232.845 163.91,234.785 164.37,235.765 164.82,236.735 166.65,236.735 167.56,236.255 168.48,235.765 169.4,234.305 
	170.29,232.355 171.21,231.395 173.5,228.955 173.5,232.845 173.05,235.265 171.21,237.225 170.29,238.675 168.48,239.645 
	168.02,240.125 167.11,241.605 166.65,242.085 166.19,242.565 166.19,245.495 168.02,245.955 168.93,246.945 172.59,246.945 
	173.5,246.455 176.25,244.505 178.99,242.085 180.36,241.105 181.74,238.195 183.56,232.355 184.01,230.895 183.56,226.035 
	182.18,218.265 183.1,212.445 182.64,208.555 181.74,194.935 180.81,178.405 179.9,168.195 177.16,158.975 173.5,152.165 
	173.96,142.445 173.05,135.145 171.67,128.355 170.76,124.145 168.93,119.285 168.02,114.905 168.48,111.495 168.48,107.135 
	168.02,103.255 166.65,99.345 165.27,96.435 163.91,94.505 162.08,92.565 159.8,89.155 157.97,87.695 156.13,86.725 153.4,86.235 
	149.9,84.785 144.42,82.835 141.22,81.375 138.02,80.405 135.28,78.955 132.99,78.445 130.25,77.485 127.97,76.515 127.05,74.575 
	126.6,68.245 127.97,64.375 129.33,57.075 130.25,57.075 130.71,55.125 131.16,51.725 132.53,48.805 133.44,45.895 133.44,43.955 
	132.53,43.465 131.62,43.955 131.62,38.125 131.16,34.725 130.71,30.825 128.43,26.445 126.14,23.535 123.39,21.595 117.9,19.655 
	111.51,19.655 108.77,20.135 106.48,20.625 103.74,21.595 101.46,23.535 98.72,26.935 96.89,30.825 95.98,34.725 95.98,43.955 
	94.61,43.955 93.69,44.445 94.15,45.895 95.06,49.295 95.98,51.725 96.44,55.615 96.89,57.075 98.26,57.555 99.64,64.375 
	101.02,68.245 100.55,74.575 99.64,76.035 97.35,77.005 95.06,77.485 92.32,77.975 90.04,78.955 86.39,80.405 81.82,82.345 
	77.85,84.785 74.2,86.235 71.46,86.725 69.62,87.695 67.8,89.155 65.53,92.565 63.69,94.505 62.32,96.435 60.95,99.345 
	59.57,103.255 59.12,107.135 59.12,111.495 59.57,114.905 58.67,119.285 56.84,124.145 55.93,128.355 54.55,135.145 53.63,142.445 
	54.09,152.165 50.44,158.975 47.7,168.195 46.78,178.405 45.87,194.935 44.96,208.555 44.5,212.445 45.42,218.265 44.04,226.035 
	43.58,230.895 44.04,232.355 45.87,238.195 47.24,241.105 48.61,242.085 51.35,244.505 54.09,246.455 55.02,246.945 58.67,246.945 
	59.57,245.955 61.41,245.495 61.41,242.565 60.95,242.085 60.49,241.605 59.57,240.125 59.12,239.645 57.29,238.675 56.38,237.225 
	54.55,235.265 54.09,232.845 54.09,228.955 56.38,231.395 57.29,232.355 58.21,234.305 59.12,235.765 60.03,236.255 60.95,236.735 
	62.78,236.735 63.23,235.765 63.69,234.785 62.78,232.845 62.32,231.395 61.86,229.925 60.49,227.985 59.57,225.565 59.12,222.635 
	56.38,217.305 55.02,215.835 54.55,213.405 54.55,209.525 55.93,202.715 58.21,195.895 65.06,182.785 67.34,175.015 68.26,169.185 
	68.26,158.485 69.17,156.055 70.54,153.635 71,151.205 72.83,149.255 74.65,144.385 75.57,136.135 77.85,144.885 79.53,150.225 
	81.82,156.055 84.1,161.895 85.01,163.835 85.01,166.255 84.56,167.725 84.56,170.635 83.19,174.035 82.27,177.435 82.27,181.335 
	82.72,184.255 80.44,189.105 79.53,192.505 79.23,196.395 78.77,199.305 77.85,204.655 77.4,209.525 76.49,217.305 79.23,244.505 
	81.82,259.585 84.56,270.755 87.3,278.525 88.21,284.355 87.76,290.675 87.76,297.485 86.85,301.365 84.56,311.095 83.64,320.805 
	84.56,328.585 86.85,336.375 90.5,349.485 93.24,359.205 93.69,364.545 93.69,369.405 92.32,374.275 92.32,375.735 93.24,377.185 
	92.79,378.645 90.94,379.615 89.59,381.075 88.21,383.025 87.3,385.445 85.93,386.905 85.93,387.885 86.85,389.335 88.67,389.825 
	90.5,389.825 91.87,390.805 94.61,391.775 100.55,391.775 102.38,390.805 103.29,391.285 104.2,391.775 105.57,391.775 
	106.94,391.285 107.86,390.805 108.32,389.825 108.77,389.335 108.77,387.885 108.32,386.905 108.32,385.445 107.4,383.025 
	107.4,381.565 106.94,379.615 106.48,378.155 106.04,375.255 106.48,373.785 106.48,371.845 104.67,368.925 104.2,366.005 
	103.74,363.585 104.2,358.235 105.57,344.625 107.86,337.825 108.32,332.475 108.32,324.705 107.4,317.405 106.94,311.095 
	107.4,305.745 108.77,302.825 109.23,300.405 110.15,296.025 110.6,290.675 110.15,284.355 111.51,275.615 111.06,268.325 
	110.15,262.005 111.51,253.745 112.88,239.645 112.88,216.335 114.71,216.335 114.71,239.645 116.08,253.745 117.47,262.005 
	116.55,268.325 116.08,275.615 117.47,284.355 117,290.675 117.47,296.025 118.37,300.405 118.83,302.825 120.2,305.745 
	120.65,311.095 120.2,317.405 119.28,324.705 119.28,332.475 119.74,337.825 122.02,344.625 123.39,358.235 123.85,363.585 
	123.39,366.005 122.94,368.925 121.11,371.845 121.11,373.785 121.57,375.255 121.11,378.155 120.65,379.615 120.2,381.565 
	120.2,383.025 119.28,385.445 119.28,386.905 118.83,387.885 118.83,389.335 119.28,389.825 119.74,390.805 120.65,391.285 "/>
<g>
	<path fill="#1D1D1B" d="M79.19,124.415c-2,0-2.06-1.56-2.06-3.81c0-1.96-0.02-3.95,2.15-3.95c1.4,0,1.86,0.81,1.86,1.99v0.18H80.5
		v-0.15c0-0.81-0.23-1.47-1.23-1.47c-1.44,0-1.48,1.41-1.48,3.39c0,2.15,0.06,3.27,1.41,3.27c1.06,0,1.35-0.67,1.35-1.59v-0.13h0.65
		v0.13c0,1.32-0.63,2.13-2.01,2.13V124.415z"/>
	<path fill="#1D1D1B" d="M85.16,124.275v-3.25c0-0.69,0.02-1.55-0.92-1.55s-1.21,0.82-1.21,1.71v3.09h-0.59v-7.47h0.59v2.9
		c0.31-0.46,0.72-0.75,1.32-0.75c1.06,0,1.39,0.71,1.39,1.65v3.67h-0.59L85.16,124.275z"/>
	<path fill="#1D1D1B" d="M87.69,121.765v0.3c0,1.16,0.18,1.84,1.11,1.84s1.06-0.55,1.1-1.22h0.59c-0.04,0.95-0.41,1.69-1.68,1.69
		c-1.48,0-1.71-1.1-1.71-2.42s0.01-3.01,1.78-3.01c1.33,0,1.65,0.92,1.65,2.13v0.68h-2.82L87.69,121.765z M89.89,120.645
		c-0.04-0.63-0.29-1.22-1.02-1.22c-0.77,0-1.06,0.52-1.14,1.18c-0.02,0.23-0.03,0.45-0.03,0.68h2.2
		C89.9,121.155,89.9,120.855,89.89,120.645z"/>
	<path fill="#1D1D1B" d="M92.96,124.375c-1.06,0-1.46-0.6-1.46-1.53v-0.12h0.59v0.12c0,0.67,0.25,1.05,0.87,1.05
		c0.58,0,0.9-0.32,0.9-0.9s-0.25-0.85-0.9-1.2l-0.41-0.23c-0.53-0.29-0.9-0.65-0.9-1.32c0-0.86,0.58-1.3,1.4-1.3
		c0.96,0,1.37,0.5,1.37,1.46v0.05h-0.59v-0.12c0-0.57-0.24-0.9-0.83-0.9c-0.5,0-0.77,0.33-0.77,0.79s0.32,0.71,0.72,0.94l0.39,0.23
		c0.56,0.31,1.11,0.68,1.11,1.49c0,0.98-0.52,1.49-1.5,1.49H92.96z"/>
	<path fill="#1D1D1B" d="M97.02,124.315c-0.92,0-1.05-0.41-1.05-1.22v-3.54h-0.81v-0.49h0.81v-1l0.59-0.27v1.27h0.99v0.49h-0.99v3.5
		c0,0.65,0.19,0.73,0.61,0.73c0.11,0,0.27-0.02,0.38-0.04v0.53C97.37,124.295,97.2,124.315,97.02,124.315z"/>
	<path fill="#1D1D1B" d="M105.75,124.275v-3.51c0-0.8-0.12-1.27-0.81-1.27c-0.77,0-1.04,0.78-1.04,1.53v3.25h-0.59v-3.51
		c0-0.7-0.07-1.27-0.8-1.27c-0.77,0-1.05,0.9-1.05,1.65v3.13h-0.59v-4.21c0-0.33-0.02-0.66-0.04-0.99h0.58v0.77
		c0.22-0.45,0.63-0.88,1.24-0.88c0.83,0,1.06,0.52,1.15,0.88c0.29-0.51,0.64-0.88,1.26-0.88c1.08,0,1.28,0.89,1.28,1.77v3.55h-0.59
		L105.75,124.275z"/>
	<path fill="#1D1D1B" d="M108.28,121.765v0.3c0,1.16,0.18,1.84,1.11,1.84s1.06-0.55,1.09-1.22h0.59c-0.04,0.95-0.41,1.69-1.68,1.69
		c-1.48,0-1.71-1.1-1.71-2.42s0-3.01,1.78-3.01c1.33,0,1.65,0.92,1.65,2.13v0.68h-2.82L108.28,121.765z M110.48,120.645
		c-0.04-0.63-0.29-1.22-1.02-1.22c-0.78,0-1.06,0.52-1.14,1.18c-0.02,0.23-0.03,0.45-0.03,0.68h2.2c0-0.13,0-0.43,0-0.64H110.48z"/>
	<path fill="#1D1D1B" d="M114.9,124.275v-0.72c-0.39,0.56-0.75,0.8-1.45,0.8c-0.92,0-1.37-0.65-1.37-1.52
		c0-1.62,1.49-1.73,2.77-1.74v-0.2c0-0.73,0-1.47-0.94-1.47c-0.5,0-1,0.25-1,0.84v0.04h-0.6v-0.03c0-0.93,0.73-1.33,1.62-1.33
		c1.21,0,1.51,0.6,1.51,1.73v1.96c0,0.55,0.01,1.09,0.03,1.63h-0.57V124.275z M114.85,121.575h-0.2c-0.88,0-1.94,0.1-1.94,1.2
		c0,0.57,0.24,1.1,0.88,1.1c0.98,0,1.26-0.88,1.26-1.66v-0.63V121.575z"/>
	<path fill="#1D1D1B" d="M118.1,124.375c-1.06,0-1.46-0.6-1.46-1.53v-0.12h0.59v0.12c0,0.67,0.25,1.05,0.87,1.05
		c0.58,0,0.9-0.32,0.9-0.9s-0.25-0.85-0.9-1.2l-0.41-0.23c-0.53-0.29-0.9-0.65-0.9-1.32c0-0.86,0.58-1.3,1.4-1.3
		c0.96,0,1.37,0.5,1.37,1.46v0.05h-0.59v-0.12c0-0.57-0.24-0.9-0.83-0.9c-0.5,0-0.77,0.33-0.77,0.79s0.32,0.71,0.72,0.94l0.39,0.23
		c0.56,0.31,1.11,0.68,1.11,1.49c0,0.98-0.52,1.49-1.5,1.49H118.1z"/>
	<path fill="#1D1D1B" d="M123.61,124.275v-0.71c-0.32,0.51-0.73,0.79-1.35,0.79c-1.06,0-1.43-0.73-1.43-1.67v-3.62h0.59v3.24
		c0,0.69,0,1.53,0.94,1.53c1.04,0,1.19-0.89,1.19-1.71v-3.06h0.59v3.92c0,0.42,0.01,0.87,0.04,1.29H123.61z"/>
	<path fill="#1D1D1B" d="M127.51,119.545c-0.81,0-1.22,0.59-1.22,1.34v3.39h-0.59v-4.26c0-0.32-0.02-0.64-0.04-0.95h0.57v0.69
		c0.29-0.5,0.76-0.81,1.31-0.81c0.03,0,0.08,0,0.12,0.01v0.59c-0.05-0.01-0.1-0.01-0.16-0.01L127.51,119.545z"/>
	<path fill="#1D1D1B" d="M128.96,121.765v0.3c0,1.16,0.18,1.84,1.11,1.84s1.06-0.55,1.09-1.22h0.59c-0.04,0.95-0.41,1.69-1.68,1.69
		c-1.48,0-1.71-1.1-1.71-2.42s0-3.01,1.78-3.01c1.33,0,1.65,0.92,1.65,2.13v0.68h-2.82L128.96,121.765z M131.16,120.645
		c-0.04-0.63-0.29-1.22-1.02-1.22c-0.78,0-1.06,0.52-1.14,1.18c-0.02,0.23-0.03,0.45-0.03,0.68h2.2c0-0.13,0-0.43,0-0.64H131.16z"/>
	<path fill="#1D1D1B" d="M137.98,124.275v-3.51c0-0.8-0.12-1.27-0.81-1.27c-0.77,0-1.04,0.78-1.04,1.53v3.25h-0.59v-3.51
		c0-0.7-0.07-1.27-0.8-1.27c-0.77,0-1.05,0.9-1.05,1.65v3.13h-0.59v-4.21c0-0.33-0.02-0.66-0.04-0.99h0.58v0.77
		c0.22-0.45,0.63-0.88,1.24-0.88c0.83,0,1.06,0.52,1.15,0.88c0.29-0.51,0.64-0.88,1.26-0.88c1.08,0,1.28,0.89,1.28,1.77v3.55h-0.59
		L137.98,124.275z"/>
	<path fill="#1D1D1B" d="M140.51,121.765v0.3c0,1.16,0.18,1.84,1.11,1.84s1.06-0.55,1.09-1.22h0.59c-0.04,0.95-0.41,1.69-1.68,1.69
		c-1.48,0-1.71-1.1-1.71-2.42s0-3.01,1.78-3.01c1.33,0,1.65,0.92,1.65,2.13v0.68h-2.82L140.51,121.765z M142.71,120.645
		c-0.04-0.63-0.29-1.22-1.02-1.22c-0.78,0-1.06,0.52-1.14,1.18c-0.02,0.23-0.03,0.45-0.03,0.68h2.2c0-0.13,0-0.43,0-0.64H142.71z"/>
	<path fill="#1D1D1B" d="M147.37,124.275v-3.24c0-0.69,0.02-1.56-0.92-1.56s-1.21,0.92-1.21,1.75v3.06h-0.59v-3.92
		c0-0.42,0-0.87-0.04-1.29h0.57v0.71c0.32-0.51,0.76-0.83,1.38-0.83c1.04,0,1.39,0.7,1.39,1.64v3.68h-0.59H147.37z"/>
	<path fill="#1D1D1B" d="M150.81,124.315c-0.92,0-1.05-0.41-1.05-1.22v-3.54h-0.81v-0.49h0.81v-1l0.59-0.27v1.27h0.99v0.49h-0.99
		v3.5c0,0.65,0.19,0.73,0.61,0.73c0.11,0,0.27-0.02,0.38-0.04v0.53C151.16,124.295,150.99,124.315,150.81,124.315z"/>
</g>
<g>
	<path fill="#1D1D1B" d="M109.69,161.305h-0.79l-1.43-6.81l-1.48,6.81h-0.79l-1.71-7.47h0.66l1.46,6.79l1.5-6.79h0.79l1.43,6.79
		l1.52-6.79h0.61L109.69,161.305z"/>
	<path fill="#1D1D1B" d="M114.62,161.305v-0.72c-0.39,0.56-0.75,0.8-1.45,0.8c-0.92,0-1.37-0.65-1.37-1.52
		c0-1.62,1.49-1.73,2.77-1.74v-0.2c0-0.73,0-1.47-0.94-1.47c-0.5,0-1,0.25-1,0.84v0.04h-0.6v-0.03c0-0.93,0.73-1.33,1.62-1.33
		c1.21,0,1.51,0.6,1.51,1.73v1.96c0,0.55,0.01,1.09,0.03,1.63h-0.57V161.305z M114.57,158.605h-0.2c-0.88,0-1.94,0.1-1.94,1.2
		c0,0.57,0.24,1.1,0.88,1.1c0.98,0,1.26-0.88,1.26-1.66v-0.63V158.605z"/>
	<path fill="#1D1D1B" d="M116.64,154.735v-0.79h0.71v0.79H116.64z M116.7,161.305v-5.21h0.59v5.21H116.7z"/>
	<path fill="#1D1D1B" d="M119.97,161.415c-1.06,0-1.46-0.6-1.46-1.53v-0.12h0.59v0.12c0,0.67,0.25,1.05,0.87,1.05
		c0.58,0,0.9-0.32,0.9-0.9s-0.25-0.85-0.9-1.2l-0.41-0.23c-0.53-0.29-0.9-0.65-0.9-1.32c0-0.86,0.58-1.3,1.4-1.3
		c0.96,0,1.37,0.5,1.37,1.46v0.05h-0.59v-0.12c0-0.57-0.24-0.9-0.83-0.9c-0.5,0-0.77,0.33-0.77,0.79s0.32,0.71,0.72,0.94l0.39,0.23
		c0.56,0.31,1.11,0.68,1.11,1.49c0,0.98-0.52,1.49-1.5,1.49L119.97,161.415z"/>
	<path fill="#1D1D1B" d="M124.03,161.355c-0.92,0-1.05-0.41-1.05-1.22v-3.54h-0.81v-0.49h0.81v-1l0.59-0.27v1.27h0.99v0.49h-0.99
		v3.5c0,0.65,0.19,0.73,0.61,0.73c0.11,0,0.27-0.02,0.38-0.04v0.53C124.38,161.335,124.21,161.355,124.03,161.355z"/>
</g>
<g>
	<path fill="#1D1D1B" d="M93.93,175.085v-3.51c0-0.79-0.12-1.27-0.81-1.27c-0.77,0-1.04,0.77-1.04,1.53v3.25h-0.59v-3.51
		c0-0.7-0.07-1.27-0.8-1.27c-0.77,0-1.05,0.9-1.05,1.65v3.13h-0.59v-4.21c0-0.33-0.02-0.66-0.04-0.99h0.58v0.76
		c0.22-0.44,0.63-0.88,1.24-0.88c0.83,0,1.06,0.52,1.15,0.88c0.29-0.51,0.64-0.88,1.26-0.88c1.08,0,1.28,0.89,1.28,1.77v3.55
		L93.93,175.085L93.93,175.085z"/>
	<path fill="#1D1D1B" d="M96.47,172.575v0.3c0,1.16,0.18,1.84,1.11,1.84s1.06-0.55,1.1-1.22h0.59c-0.04,0.95-0.41,1.69-1.68,1.69
		c-1.48,0-1.71-1.09-1.71-2.42s0.01-3.01,1.78-3.01c1.33,0,1.65,0.92,1.65,2.13v0.68h-2.82L96.47,172.575z M98.67,171.455
		c-0.04-0.63-0.29-1.22-1.02-1.22c-0.77,0-1.06,0.52-1.14,1.18c-0.02,0.23-0.03,0.45-0.03,0.68h2.2
		C98.68,171.965,98.68,171.665,98.67,171.455L98.67,171.455z"/>
	<path fill="#1D1D1B" d="M103.08,175.085v-0.72c-0.39,0.56-0.75,0.81-1.45,0.81c-0.92,0-1.37-0.65-1.37-1.52
		c0-1.62,1.49-1.72,2.77-1.73v-0.2c0-0.73,0-1.47-0.94-1.47c-0.5,0-1,0.25-1,0.84v0.04h-0.6v-0.03c0-0.93,0.73-1.33,1.62-1.33
		c1.21,0,1.51,0.6,1.51,1.72v1.96c0,0.55,0.01,1.08,0.03,1.63H103.08z M103.03,172.385h-0.2c-0.88,0-1.94,0.1-1.94,1.2
		c0,0.57,0.24,1.09,0.88,1.09c0.98,0,1.26-0.88,1.26-1.66V172.385L103.03,172.385z"/>
	<path fill="#1D1D1B" d="M106.3,175.195c-1.06,0-1.46-0.6-1.46-1.53v-0.12h0.59v0.12c0,0.67,0.25,1.05,0.87,1.05
		c0.58,0,0.9-0.32,0.9-0.9s-0.25-0.85-0.9-1.2l-0.41-0.23c-0.53-0.29-0.9-0.65-0.9-1.32c0-0.86,0.58-1.3,1.4-1.3
		c0.96,0,1.37,0.5,1.37,1.46v0.05h-0.59v-0.12c0-0.57-0.24-0.9-0.83-0.9c-0.5,0-0.77,0.33-0.77,0.8s0.32,0.71,0.72,0.94l0.39,0.23
		c0.56,0.31,1.11,0.68,1.11,1.49c0,0.98-0.52,1.49-1.5,1.49L106.3,175.195z"/>
	<path fill="#1D1D1B" d="M111.8,175.085v-0.71c-0.32,0.51-0.73,0.8-1.35,0.8c-1.06,0-1.43-0.73-1.43-1.67v-3.62h0.59v3.24
		c0,0.69,0,1.53,0.94,1.53c1.04,0,1.19-0.89,1.19-1.71v-3.06h0.59v3.91c0,0.42,0.01,0.87,0.04,1.29H111.8z"/>
	<path fill="#1D1D1B" d="M115.69,170.355c-0.81,0-1.22,0.59-1.22,1.34v3.39h-0.59v-4.26c0-0.32-0.02-0.64-0.04-0.95h0.57v0.69
		c0.29-0.5,0.76-0.8,1.31-0.8c0.03,0,0.08,0,0.12,0v0.59c-0.05-0.01-0.1-0.01-0.16-0.01L115.69,170.355z"/>
	<path fill="#1D1D1B" d="M117.13,172.575v0.3c0,1.16,0.18,1.84,1.11,1.84s1.06-0.55,1.09-1.22h0.59c-0.04,0.95-0.41,1.69-1.68,1.69
		c-1.48,0-1.71-1.09-1.71-2.42s0-3.01,1.78-3.01c1.33,0,1.65,0.92,1.65,2.13v0.68h-2.82L117.13,172.575z M119.33,171.455
		c-0.04-0.63-0.29-1.22-1.02-1.22c-0.78,0-1.06,0.52-1.14,1.18c-0.02,0.23-0.03,0.45-0.03,0.68h2.2c0-0.13,0-0.43,0-0.64
		L119.33,171.455z"/>
	<path fill="#1D1D1B" d="M126.15,175.085v-3.51c0-0.79-0.12-1.27-0.81-1.27c-0.77,0-1.04,0.77-1.04,1.53v3.25h-0.59v-3.51
		c0-0.7-0.07-1.27-0.8-1.27c-0.77,0-1.05,0.9-1.05,1.65v3.13h-0.59v-4.21c0-0.33-0.02-0.66-0.04-0.99h0.58v0.76
		c0.22-0.44,0.63-0.88,1.24-0.88c0.83,0,1.06,0.52,1.15,0.88c0.29-0.51,0.64-0.88,1.26-0.88c1.08,0,1.28,0.89,1.28,1.77v3.55
		L126.15,175.085L126.15,175.085z"/>
	<path fill="#1D1D1B" d="M128.69,172.575v0.3c0,1.16,0.18,1.84,1.11,1.84s1.06-0.55,1.09-1.22h0.59c-0.04,0.95-0.41,1.69-1.68,1.69
		c-1.48,0-1.71-1.09-1.71-2.42s0-3.01,1.78-3.01c1.33,0,1.65,0.92,1.65,2.13v0.68h-2.82L128.69,172.575z M130.89,171.455
		c-0.04-0.63-0.29-1.22-1.02-1.22c-0.78,0-1.06,0.52-1.14,1.18c-0.02,0.23-0.03,0.45-0.03,0.68h2.2c0-0.13,0-0.43,0-0.64
		L130.89,171.455z"/>
	<path fill="#1D1D1B" d="M135.54,175.085v-3.24c0-0.69,0.02-1.56-0.92-1.56s-1.21,0.92-1.21,1.75v3.06h-0.59v-3.92
		c0-0.42,0-0.87-0.04-1.29h0.57v0.71c0.32-0.51,0.76-0.83,1.38-0.83c1.04,0,1.39,0.7,1.39,1.64v3.68h-0.59H135.54z"/>
	<path fill="#1D1D1B" d="M138.98,175.135c-0.92,0-1.05-0.41-1.05-1.22v-3.54h-0.81v-0.49h0.81v-1l0.59-0.27v1.27h0.99v0.49h-0.99
		v3.5c0,0.65,0.19,0.73,0.61,0.73c0.11,0,0.27-0.02,0.38-0.04v0.53C139.33,175.115,139.16,175.135,138.98,175.135z"/>
</g>
<g>
	<path fill="#1D1D1B" d="M201.8,318.275h-7.47v-0.62h6.92v-2.36h0.55V318.275L201.8,318.275z"/>
	<path fill="#1D1D1B" d="M199.29,313.855h0.3c1.16,0,1.84-0.18,1.84-1.11s-0.55-1.06-1.22-1.09v-0.59c0.95,0.04,1.69,0.41,1.69,1.68
		c0,1.48-1.09,1.71-2.42,1.71s-3.01,0-3.01-1.78c0-1.33,0.92-1.65,2.13-1.65h0.68v2.82L199.29,313.855z M198.17,311.655
		c-0.63,0.04-1.22,0.29-1.22,1.02c0,0.78,0.52,1.06,1.18,1.14c0.23,0.02,0.45,0.03,0.68,0.03v-2.2c-0.13,0-0.43,0-0.64,0
		L198.17,311.655z"/>
	<path fill="#1D1D1B" d="M197.48,306.495h4.55c1.2,0,1.84,0.46,1.84,1.75c0,1.01-0.51,1.52-1.49,1.54v-0.61
		c0.65,0,1.02-0.25,1.02-0.94c0-1.05-0.73-1.14-1.62-1.14h-0.66c0.45,0.31,0.63,0.67,0.63,1.22c0,1.5-1.34,1.6-2.53,1.6
		c-1.3,0-2.74-0.23-2.74-1.63c0-0.67,0.23-0.97,0.73-1.24h-0.62v-0.58C196.9,306.475,197.17,306.495,197.48,306.495L197.48,306.495z
		 M196.97,308.195c0,1.13,1.45,1.12,2.24,1.12c0.89,0,2.06,0,2.06-1.04c0-1.27-1.46-1.21-2.36-1.21c-0.85,0-1.94,0.06-1.94,1.14
		V308.195z"/>
	<path fill="#1D1D1B" d="M201.8,302.645h-7.47v-0.59h7.47V302.645z"/>
	<path fill="#1D1D1B" d="M199.29,300.085h0.3c1.16,0,1.84-0.18,1.84-1.11s-0.55-1.06-1.22-1.09v-0.59c0.95,0.04,1.69,0.41,1.69,1.68
		c0,1.48-1.09,1.71-2.42,1.71s-3.01,0-3.01-1.78c0-1.33,0.92-1.65,2.13-1.65h0.68v2.82L199.29,300.085z M198.17,297.885
		c-0.63,0.04-1.22,0.29-1.22,1.02c0,0.78,0.52,1.06,1.18,1.14c0.23,0.02,0.45,0.03,0.68,0.03v-2.2c-0.13,0-0.43,0-0.64,0
		L198.17,297.885z"/>
	<path fill="#1D1D1B" d="M201.8,293.235h-3.24c-0.69,0-1.56-0.02-1.56,0.92s0.92,1.21,1.75,1.21h3.06v0.59h-3.92
		c-0.42,0-0.87,0-1.29,0.04v-0.57h0.71c-0.51-0.32-0.83-0.76-0.83-1.38c0-1.04,0.7-1.39,1.64-1.39h3.68v0.59V293.235z"/>
	<path fill="#1D1D1B" d="M197.48,287.895h4.55c1.2,0,1.84,0.46,1.84,1.75c0,1.01-0.51,1.52-1.49,1.54v-0.61
		c0.65,0,1.02-0.25,1.02-0.94c0-1.05-0.73-1.14-1.62-1.14h-0.66c0.45,0.31,0.63,0.67,0.63,1.22c0,1.5-1.34,1.6-2.53,1.6
		c-1.3,0-2.74-0.23-2.74-1.63c0-0.67,0.23-0.97,0.73-1.24h-0.62v-0.58C196.9,287.875,197.17,287.895,197.48,287.895L197.48,287.895z
		 M196.97,289.595c0,1.13,1.45,1.12,2.24,1.12c0.89,0,2.06,0,2.06-1.04c0-1.27-1.46-1.21-2.36-1.21c-0.85,0-1.94,0.06-1.94,1.14
		V289.595z"/>
	<path fill="#1D1D1B" d="M201.84,285.035c0,0.92-0.41,1.05-1.22,1.05h-3.54v0.81h-0.49v-0.81h-1l-0.27-0.59h1.27v-0.99h0.49v0.99
		h3.5c0.65,0,0.73-0.19,0.73-0.61c0-0.11-0.02-0.27-0.04-0.38h0.53C201.82,284.685,201.84,284.855,201.84,285.035z"/>
	<path fill="#1D1D1B" d="M201.8,280.765h-3.25c-0.69,0-1.55-0.02-1.55,0.92s0.82,1.21,1.71,1.21h3.09v0.59h-7.47v-0.59h2.9
		c-0.46-0.31-0.75-0.72-0.75-1.32c0-1.06,0.71-1.39,1.65-1.39h3.67v0.59L201.8,280.765z"/>
</g>
<g>
	<path fill="#1D1D1B" d="M190.09,196.115h2.8v-2.21h0.54v2.21h3.58v0.62h-7.47v-2.99h0.55V196.115L190.09,196.115z"/>
	<path fill="#1D1D1B" d="M192.28,190.935c0,0.81,0.59,1.22,1.34,1.22h3.39v0.59h-4.26c-0.32,0-0.64,0.02-0.95,0.04v-0.57h0.69
		c-0.5-0.29-0.81-0.76-0.81-1.31c0-0.03,0-0.08,0.01-0.12h0.59c-0.01,0.05-0.01,0.1-0.01,0.16L192.28,190.935z"/>
	<path fill="#1D1D1B" d="M197.12,188.405c0,1.51-1.04,1.69-2.66,1.69c-1.52,0-2.77-0.19-2.77-1.77s1.15-1.67,2.75-1.67
		C196.15,186.655,197.12,186.955,197.12,188.405L197.12,188.405z M194.27,187.265c-0.85,0-2.1-0.05-2.1,1.07
		c0,1.19,1.29,1.15,2.12,1.15h0.6c0.79,0,1.76-0.03,1.76-1.11c0-1.01-0.92-1.12-1.74-1.12h-0.64L194.27,187.265z"/>
	<path fill="#1D1D1B" d="M197.02,182.585h-3.24c-0.69,0-1.56-0.02-1.56,0.92s0.92,1.21,1.75,1.21h3.06v0.59h-3.92
		c-0.42,0-0.87,0-1.29,0.04v-0.57h0.71c-0.51-0.32-0.83-0.76-0.83-1.38c0-1.04,0.7-1.39,1.64-1.39h3.68v0.59V182.585z"/>
	<path fill="#1D1D1B" d="M197.06,179.145c0,0.92-0.41,1.05-1.22,1.05h-3.54v0.81h-0.49v-0.81h-1l-0.27-0.59h1.27v-0.99h0.49v0.99
		h3.5c0.65,0,0.73-0.19,0.73-0.61c0-0.11-0.02-0.27-0.04-0.38h0.53C197.04,178.795,197.06,178.965,197.06,179.145z"/>
	<path fill="#1D1D1B" d="M197.12,174.165c0,1.06-0.6,1.46-1.53,1.46h-0.12v-0.59h0.12c0.67,0,1.05-0.25,1.05-0.87
		c0-0.58-0.32-0.9-0.9-0.9s-0.85,0.25-1.2,0.9l-0.23,0.41c-0.29,0.53-0.65,0.9-1.32,0.9c-0.86,0-1.3-0.58-1.3-1.4
		c0-0.96,0.5-1.38,1.46-1.38h0.05v0.59h-0.12c-0.57,0-0.9,0.24-0.9,0.83c0,0.5,0.33,0.77,0.8,0.77s0.71-0.32,0.94-0.72l0.23-0.39
		c0.31-0.56,0.68-1.11,1.49-1.11c0.98,0,1.49,0.52,1.49,1.5L197.12,174.165z"/>
	<path fill="#1D1D1B" d="M197.02,171.415h-7.47v-0.59h7.47V171.415z"/>
	<path fill="#1D1D1B" d="M194.51,168.855h0.3c1.16,0,1.84-0.18,1.84-1.11s-0.55-1.06-1.22-1.1v-0.59c0.95,0.04,1.69,0.41,1.69,1.68
		c0,1.48-1.1,1.71-2.42,1.71s-3.01,0-3.01-1.78c0-1.33,0.92-1.65,2.13-1.65h0.68v2.82L194.51,168.855z M193.39,166.655
		c-0.63,0.04-1.22,0.29-1.22,1.02c0,0.77,0.52,1.06,1.18,1.14c0.23,0.02,0.45,0.03,0.68,0.03v-2.2c-0.13,0-0.43,0-0.64,0
		L193.39,166.655z"/>
	<path fill="#1D1D1B" d="M194.51,164.315h0.3c1.16,0,1.84-0.18,1.84-1.11s-0.55-1.06-1.22-1.09v-0.59c0.95,0.04,1.69,0.41,1.69,1.68
		c0,1.48-1.1,1.71-2.42,1.71s-3.01-0.01-3.01-1.78c0-1.33,0.92-1.65,2.13-1.65h0.68v2.82L194.51,164.315z M193.39,162.115
		c-0.63,0.04-1.22,0.29-1.22,1.02c0,0.77,0.52,1.06,1.18,1.14c0.23,0.02,0.45,0.03,0.68,0.03v-2.2
		C193.9,162.105,193.6,162.105,193.39,162.115L193.39,162.115z"/>
	<path fill="#1D1D1B" d="M197.02,158.645v0.67l-5.21,1.48v-0.64l4.54-1.19l-4.54-1.22v-0.57L197.02,158.645L197.02,158.645z"/>
	<path fill="#1D1D1B" d="M194.51,155.845h0.3c1.16,0,1.84-0.17,1.84-1.1s-0.55-1.06-1.22-1.1v-0.59c0.95,0.04,1.69,0.41,1.69,1.68
		c0,1.48-1.1,1.71-2.42,1.71s-3.01-0.01-3.01-1.78c0-1.33,0.92-1.65,2.13-1.65h0.68v2.82L194.51,155.845z M193.39,153.645
		c-0.63,0.04-1.22,0.29-1.22,1.02c0,0.77,0.52,1.06,1.18,1.14c0.23,0.02,0.45,0.03,0.68,0.03v-2.2c-0.13,0-0.43,0-0.64,0
		L193.39,153.645z"/>
</g>
<g>
	<path fill="#1D1D1B" d="M206.66,186.305h-7.47v-0.59h7.47V186.305z"/>
	<path fill="#1D1D1B" d="M204.15,183.755h0.3c1.16,0,1.84-0.18,1.84-1.11s-0.55-1.06-1.22-1.09v-0.59c0.95,0.04,1.69,0.41,1.69,1.68
		c0,1.48-1.1,1.71-2.42,1.71s-3.01,0-3.01-1.78c0-1.33,0.92-1.65,2.13-1.65h0.68v2.82L204.15,183.755z M203.03,181.555
		c-0.63,0.04-1.22,0.29-1.22,1.02c0,0.78,0.52,1.06,1.18,1.14c0.23,0.02,0.45,0.03,0.68,0.03v-2.2c-0.13,0-0.43,0-0.64,0
		L203.03,181.555z"/>
	<path fill="#1D1D1B" d="M206.66,176.905h-3.24c-0.69,0-1.56-0.02-1.56,0.92s0.92,1.21,1.75,1.21h3.06v0.59h-3.92
		c-0.42,0-0.87,0-1.29,0.04v-0.57h0.71c-0.51-0.32-0.83-0.76-0.83-1.38c0-1.04,0.7-1.39,1.64-1.39h3.68v0.59V176.905z"/>
	<path fill="#1D1D1B" d="M202.34,171.555h4.55c1.2,0,1.84,0.46,1.84,1.75c0,1.01-0.51,1.52-1.49,1.54v-0.61
		c0.65,0,1.02-0.25,1.02-0.94c0-1.05-0.73-1.14-1.62-1.14h-0.66c0.45,0.31,0.63,0.67,0.63,1.22c0,1.5-1.34,1.6-2.53,1.6
		c-1.3,0-2.74-0.23-2.74-1.63c0-0.67,0.23-0.97,0.73-1.24h-0.62v-0.58C201.76,171.525,202.03,171.555,202.34,171.555L202.34,171.555
		z M201.83,173.255c0,1.13,1.45,1.12,2.24,1.12c0.89,0,2.06,0,2.06-1.04c0-1.27-1.46-1.21-2.36-1.21c-0.85,0-1.94,0.06-1.94,1.14
		V173.255z"/>
	<path fill="#1D1D1B" d="M206.7,168.695c0,0.92-0.41,1.05-1.22,1.05h-3.54v0.81h-0.49v-0.81h-1l-0.27-0.59h1.27v-0.99h0.49v0.99h3.5
		c0.65,0,0.73-0.19,0.73-0.61c0-0.11-0.02-0.27-0.04-0.38h0.53C206.68,168.345,206.7,168.515,206.7,168.695z"/>
	<path fill="#1D1D1B" d="M206.66,164.425h-3.25c-0.69,0-1.55-0.02-1.55,0.92s0.82,1.21,1.71,1.21h3.09v0.59h-7.47v-0.59h2.9
		c-0.46-0.31-0.75-0.72-0.75-1.32c0-1.06,0.71-1.39,1.65-1.39h3.67v0.59L206.66,164.425z"/>
</g>
<line fill="none" stroke="#9D9D9C" stroke-width="1.38" stroke-linecap="round" stroke-linejoin="round" stroke-dasharray="0,0,0,2.75" x1="81.54" y1="135.665" x2="148.8" y2="135.665"/>
<path fill="none" stroke="#9D9D9C" stroke-width="1.38" stroke-linecap="round" stroke-linejoin="round" d="M150.17,135.665
	L150.17,135.665 M78.8,135.665L78.8,135.665"/>
<line fill="none" stroke="#9D9D9C" stroke-width="1.38" stroke-linecap="round" stroke-linejoin="round" stroke-dasharray="0,0,0,2.74" x1="90.84" y1="165.965" x2="138.82" y2="165.965"/>
<path fill="none" stroke="#9D9D9C" stroke-width="1.38" stroke-linecap="round" stroke-linejoin="round" d="M140.19,165.965
	L140.19,165.965 M88.1,165.965L88.1,165.965"/>
<g>
	<g>
		
			<line fill="none" stroke="#9D9D9C" stroke-width="1.38" stroke-linecap="round" stroke-linejoin="round" stroke-dasharray="0,0,0,2.8" x1="79.61" y1="393.245" x2="16.49" y2="393.245"/>
	</g>
</g>
<line fill="none" stroke="#9D9D9C" stroke-width="1.38" stroke-linecap="round" stroke-linejoin="round" stroke-dasharray="0,0,0,2.76" x1="15.08" y1="390.485" x2="15.08" y2="226.405"/>
<g>
	<g>
		<path fill="none" stroke="#9D9D9C" stroke-width="1.38" stroke-linecap="round" stroke-linejoin="round" d="M15.08,225.025
			L15.08,225.025 M15.08,393.245L15.08,393.245 M82.41,393.245L82.41,393.245"/>
	</g>
</g>
<line fill="none" stroke="#9D9D9C" stroke-width="1.38" stroke-linecap="round" stroke-linejoin="round" stroke-dasharray="0,0,0,2.74" x1="14.59" y1="153.055" x2="15.08" y2="20.085"/>
<line fill="none" stroke="#9D9D9C" stroke-width="1.38" stroke-linecap="round" stroke-linejoin="round" stroke-dasharray="0,0,0,2.8" x1="17.88" y1="18.715" x2="89.16" y2="18.715"/>
<path fill="none" stroke="#9D9D9C" stroke-width="1.38" stroke-linecap="round" stroke-linejoin="round" d="M90.56,18.715
	L90.56,18.715 M15.09,18.715L15.09,18.715 M14.58,155.805L14.58,155.805"/>
<g>
	<path fill="#1D1D1B" d="M15.37,209.975v1.75H7.9v-1.79c0-1.32,0.56-1.86,1.87-1.86c0.87,0,1.38,0.19,1.7,1.04
		c0.28-1,0.89-1.19,1.86-1.19c1.47,0,2.04,0.6,2.04,2.04V209.975z M8.44,210.105v0.99h2.8v-1.09c0-0.97-0.57-1.29-1.48-1.29
		C8.75,208.715,8.44,209.155,8.44,210.105L8.44,210.105z M11.77,209.975v1.13h3.07v-0.91c0-1.13-0.27-1.61-1.49-1.61
		C12.36,208.585,11.77,208.925,11.77,209.975z"/>
	<path fill="#1D1D1B" d="M15.47,205.055c0,1.51-1.04,1.69-2.66,1.69c-1.52,0-2.77-0.19-2.77-1.77s1.15-1.67,2.75-1.67
		C14.5,203.305,15.47,203.605,15.47,205.055z M12.62,203.915c-0.85,0-2.1-0.05-2.1,1.07c0,1.19,1.29,1.15,2.12,1.15h0.6
		c0.8,0,1.76-0.03,1.76-1.11c0-1.01-0.92-1.12-1.74-1.12h-0.64V203.915z"/>
	<path fill="#1D1D1B" d="M15.37,199.275h-0.62c0.49,0.32,0.7,0.64,0.7,1.23c0,1.57-1.58,1.66-2.81,1.66c-1.15,0-2.59-0.24-2.59-1.66
		c0-0.64,0.23-0.94,0.61-1.17H7.9v-0.59h6.47c0.33,0,0.67-0.02,1-0.04L15.37,199.275L15.37,199.275z M10.55,200.445
		c0,1.07,1.28,1.13,2.11,1.13c1.34,0,2.29-0.16,2.29-1.07c0-1.16-1.12-1.19-2.14-1.19c-1.26,0-2.26,0.08-2.26,1.14L10.55,200.445z"
		/>
	<path fill="#1D1D1B" d="M17.35,196.175v0.58l-1.96-0.58l-5.23,1.56v-0.63l4.42-1.22l-4.42-1.19v-0.58L17.35,196.175L17.35,196.175z
		"/>
	<path fill="#1D1D1B" d="M15.37,188.095h-3.25c-0.69,0-1.55-0.02-1.55,0.92s0.82,1.21,1.71,1.21h3.09v0.59H7.9v-0.59h2.9
		c-0.46-0.31-0.75-0.72-0.75-1.32c0-1.06,0.71-1.39,1.65-1.39h3.67v0.59V188.095z"/>
	<path fill="#1D1D1B" d="M12.86,185.565h0.3c1.16,0,1.84-0.18,1.84-1.11s-0.55-1.06-1.22-1.09v-0.59c0.95,0.04,1.69,0.41,1.69,1.68
		c0,1.48-1.1,1.71-2.42,1.71s-3.01,0-3.01-1.78c0-1.33,0.92-1.65,2.13-1.65h0.68v2.82L12.86,185.565z M11.74,183.365
		c-0.63,0.04-1.22,0.29-1.22,1.02c0,0.78,0.52,1.06,1.18,1.14c0.23,0.02,0.45,0.03,0.68,0.03v-2.2c-0.13,0-0.43,0-0.64,0V183.365z"
		/>
	<path fill="#1D1D1B" d="M8.8,181.475H8.01v-0.71H8.8V181.475z M15.37,181.415h-5.21v-0.59h5.21V181.415z"/>
	<path fill="#1D1D1B" d="M11.05,176.055h4.54c1.2,0,1.84,0.46,1.84,1.75c0,1.01-0.51,1.52-1.49,1.54v-0.61
		c0.65,0,1.02-0.25,1.02-0.94c0-1.05-0.73-1.14-1.62-1.14h-0.66c0.45,0.31,0.63,0.67,0.63,1.22c0,1.5-1.34,1.6-2.53,1.6
		c-1.3,0-2.74-0.23-2.74-1.63c0-0.67,0.23-0.97,0.73-1.24h-0.62v-0.58c0.31,0.01,0.58,0.03,0.89,0.03L11.05,176.055z M10.54,177.755
		c0,1.13,1.45,1.12,2.24,1.12c0.89,0,2.06,0,2.06-1.04c0-1.27-1.46-1.21-2.36-1.21c-0.85,0-1.94,0.06-1.94,1.14L10.54,177.755z"/>
	<path fill="#1D1D1B" d="M15.37,171.795h-3.25c-0.69,0-1.55-0.02-1.55,0.92s0.82,1.21,1.71,1.21h3.09v0.59H7.9v-0.59h2.9
		c-0.46-0.31-0.75-0.72-0.75-1.32c0-1.06,0.71-1.39,1.65-1.39h3.67v0.59V171.795z"/>
	<path fill="#1D1D1B" d="M15.41,168.355c0,0.92-0.41,1.05-1.22,1.05h-3.54v0.81h-0.49v-0.81h-1l-0.27-0.59h1.27v-0.99h0.49v0.99h3.5
		c0.65,0,0.73-0.19,0.73-0.61c0-0.11-0.02-0.27-0.04-0.38h0.53C15.39,167.995,15.41,168.175,15.41,168.355z"/>
</g>
<g>
	<g>
		
			<line fill="none" stroke="#9D9D9C" stroke-width="1.38" stroke-linecap="round" stroke-linejoin="round" stroke-dasharray="0,0,0,2.73" x1="149.62" y1="392.735" x2="202.94" y2="392.735"/>
	</g>
</g>
<line fill="none" stroke="#9D9D9C" stroke-width="1.38" stroke-linecap="round" stroke-linejoin="round" stroke-dasharray="0,0,0,2.8" x1="204.31" y1="389.935" x2="204.31" y2="332.525"/>
<g>
	<g>
		<path fill="none" stroke="#9D9D9C" stroke-width="1.38" stroke-linecap="round" stroke-linejoin="round" d="M204.31,331.125
			L204.31,331.125 M204.31,392.735L204.31,392.735 M146.89,392.735L146.89,392.735"/>
	</g>
</g>
<line fill="none" stroke="#9D9D9C" stroke-width="1.38" stroke-linecap="round" stroke-linejoin="round" stroke-dasharray="0,0,0,2.6" x1="190.83" y1="213.565" x2="202.51" y2="213.565"/>
<line fill="none" stroke="#9D9D9C" stroke-width="1.38" stroke-linecap="round" stroke-linejoin="round" stroke-dasharray="0,0,0,2.48" x1="203.8" y1="211.085" x2="203.8" y2="204.885"/>
<path fill="none" stroke="#9D9D9C" stroke-width="1.38" stroke-linecap="round" stroke-linejoin="round" d="M203.8,203.645
	L203.8,203.645 M203.8,213.575L203.8,213.575 M188.23,213.575L188.23,213.575"/>
<line fill="none" stroke="#9D9D9C" stroke-width="1.38" stroke-linecap="round" stroke-linejoin="round" stroke-dasharray="0,0,0,2.72" x1="122.81" y1="217.145" x2="202.95" y2="217.145"/>
<line fill="none" stroke="#9D9D9C" stroke-width="1.38" stroke-linecap="round" stroke-linejoin="round" stroke-dasharray="0,0,0,2.79" x1="204.31" y1="219.935" x2="204.31" y2="266.035"/>
<path fill="none" stroke="#9D9D9C" stroke-width="1.38" stroke-linecap="round" stroke-linejoin="round" d="M204.31,267.435
	L204.31,267.435 M204.31,217.145L204.31,217.145 M120.09,217.145L120.09,217.145"/>
<line fill="none" stroke="#9D9D9C" stroke-width="1.38" stroke-linecap="round" stroke-linejoin="round" stroke-dasharray="0,0,0,2.76" x1="157.31" y1="135.505" x2="202.93" y2="135.505"/>
<line fill="none" stroke="#9D9D9C" stroke-width="1.38" stroke-linecap="round" stroke-linejoin="round" stroke-dasharray="0,0,0,2.62" x1="204.31" y1="138.135" x2="204.31" y2="144.695"/>
<path fill="none" stroke="#9D9D9C" stroke-width="1.38" stroke-linecap="round" stroke-linejoin="round" d="M204.31,146.005
	L204.31,146.005 M204.31,135.505L204.31,135.505 M154.54,135.505L154.54,135.505"/>
<line fill="none" stroke="#9D9D9C" stroke-width="1.38" stroke-linecap="round" stroke-linejoin="round" stroke-dasharray="0,0,0,2.8" x1="101.285" y1="74.133" x2="126.926" y2="74.133"/>
<g>
	<path fill="#1D1D1B" d="M96.489,88.72c-2.036,0-2.089-1.586-2.089-3.874c0-1.995-0.021-4.011,2.184-4.011
		c1.428,0,1.89,0.819,1.89,2.026v0.179h-0.65v-0.147c0-0.818-0.231-1.49-1.25-1.49c-1.459,0-1.501,1.428-1.501,3.443
		c0,2.184,0.063,3.327,1.428,3.327c1.081,0,1.375-0.682,1.375-1.616V86.42h0.662v0.137C98.537,87.901,97.896,88.72,96.489,88.72z"/>
	<path fill="#1D1D1B" d="M101.309,88.677c-1.533,0-1.722-1.06-1.722-2.697c0-1.543,0.188-2.813,1.795-2.813
		c1.596,0,1.701,1.165,1.701,2.792C103.084,87.701,102.779,88.677,101.309,88.677z M102.464,85.781c0-0.861,0.053-2.132-1.092-2.132
		c-1.207,0-1.165,1.312-1.165,2.152v0.608c0,0.809,0.031,1.785,1.123,1.785c1.029,0,1.134-0.935,1.134-1.764V85.781z"/>
	<path fill="#1D1D1B" d="M104.459,88.573v-7.59h0.599v7.59H104.459z"/>
	<path fill="#1D1D1B" d="M106.643,88.573v-7.59h0.599v7.59H106.643z"/>
	<path fill="#1D1D1B" d="M111.346,88.573v-0.735c-0.399,0.567-0.767,0.819-1.47,0.819c-0.935,0-1.396-0.661-1.396-1.543
		c0-1.648,1.512-1.753,2.813-1.764v-0.2c0-0.745,0-1.49-0.955-1.49c-0.504,0-1.019,0.252-1.019,0.851v0.042h-0.608v-0.031
		c0-0.945,0.745-1.354,1.647-1.354c1.229,0,1.533,0.608,1.533,1.753v1.994c0,0.557,0.011,1.103,0.031,1.659H111.346z
		 M111.294,85.832h-0.199c-0.893,0-1.974,0.105-1.974,1.218c0,0.578,0.241,1.113,0.893,1.113c0.997,0,1.28-0.893,1.28-1.69V85.832z"
		/>
	<path fill="#1D1D1B" d="M115.305,83.765c-0.819,0-1.239,0.598-1.239,1.364v3.443h-0.599v-4.325c0-0.325-0.021-0.65-0.042-0.966
		h0.578l0.01,0.703c0.284-0.504,0.767-0.818,1.323-0.818c0.031,0,0.084,0,0.126,0.011v0.598
		C115.41,83.765,115.357,83.765,115.305,83.765z"/>
	<path fill="#1D1D1B" d="M119.935,88.677c-1.081,0-1.48-0.608-1.48-1.553v-0.127h0.599v0.127c0,0.682,0.252,1.07,0.882,1.07
		c0.588,0,0.913-0.325,0.913-0.913c0-0.609-0.252-0.861-0.913-1.218l-0.42-0.231c-0.535-0.294-0.913-0.661-0.913-1.344
		c0-0.871,0.588-1.322,1.428-1.322c0.977,0,1.396,0.504,1.396,1.479v0.053h-0.599v-0.126c0-0.577-0.241-0.913-0.84-0.913
		c-0.504,0-0.787,0.336-0.787,0.809c0,0.462,0.325,0.725,0.734,0.955l0.399,0.23c0.566,0.315,1.123,0.693,1.123,1.512
		C121.458,88.163,120.932,88.677,119.935,88.677z"/>
	<path fill="#1D1D1B" d="M122.665,81.896v-0.798h0.725v0.798H122.665z M122.728,88.573v-5.291h0.599v5.291H122.728z"/>
	<path fill="#1D1D1B" d="M124.44,88.573v-0.546l2.089-4.23h-1.953v-0.515h2.583v0.546l-2.089,4.23h2.12v0.515H124.44z"/>
	<path fill="#1D1D1B" d="M128.639,86.022v0.304c0,1.176,0.179,1.869,1.123,1.869c0.903,0,1.082-0.557,1.113-1.238h0.599
		c-0.042,0.965-0.42,1.721-1.712,1.721c-1.501,0-1.742-1.112-1.742-2.456c0-1.407,0.011-3.055,1.806-3.055
		c1.354,0,1.68,0.935,1.68,2.162v0.693H128.639z M130.876,84.888c-0.042-0.641-0.294-1.239-1.039-1.239
		c-0.788,0-1.082,0.525-1.155,1.197c-0.021,0.23-0.031,0.462-0.031,0.692h2.236C130.886,85.402,130.886,85.098,130.876,84.888z"/>
</g>
</svg>
